<svg width="439" height="326" viewBox="0 0 439 326" fill="none" xmlns="http://www.w3.org/2000/svg">
<path d="M370.491 133.782L306.961 60.1948H315.805L379.335 133.782H370.491Z" fill="white" stroke="#003A47" stroke-width="1.0995" stroke-linejoin="round"/>
<path d="M307.247 60.1948L374.355 133.93H283.252L243.717 179.696V133.782L307.247 60.1948Z" fill="white" stroke="#003A47" stroke-width="1.0995" stroke-linejoin="round"/>
<path d="M307.443 116.716C315.109 116.716 321.325 110.501 321.325 102.834C321.325 95.1673 315.109 88.9521 307.443 88.9521C299.776 88.9521 293.561 95.1673 293.561 102.834C293.561 110.501 299.776 116.716 307.443 116.716Z" fill="white" stroke="#003A47" stroke-width="1.0995" stroke-miterlimit="10"/>
<path d="M307.443 88.9521V116.716" stroke="#003A47" stroke-width="1.0995" stroke-miterlimit="10"/>
<path d="M321.328 102.834H293.566" stroke="#003A47" stroke-width="1.0995" stroke-miterlimit="10"/>
<path d="M365.515 133.556L298.975 60.48H306.963L373.463 133.556H365.515Z" fill="#003A47" stroke="#003A47" stroke-width="1.0995" stroke-linejoin="round"/>
<path d="M315.806 60.1948H143.293L79.7598 133.782H252.275L315.806 60.1948Z" fill="white" stroke="#003A47" stroke-width="1.0995" stroke-linejoin="round"/>
<path d="M358.826 179.696V273.192H88.3203V133.782H103.74V106.006L123.411 83.2231L143.084 106.006V133.782H188.758V106.006L208.426 83.2231L228.099 106.006V133.782H243.719V179.696H358.826Z" fill="white" stroke="#003A47" stroke-width="1.0995" stroke-linejoin="round"/>
<path d="M430.956 179.696V273.193H358.824V179.014L394.468 137.73L430.956 179.696Z" fill="white" stroke="#003A47" stroke-width="1.0995" stroke-miterlimit="10"/>
<path d="M394.891 175.528C399.755 175.528 403.698 171.585 403.698 166.721C403.698 161.857 399.755 157.914 394.891 157.914C390.027 157.914 386.084 161.857 386.084 166.721C386.084 171.585 390.027 175.528 394.891 175.528Z" fill="white" stroke="#003A47" stroke-width="1.0995" stroke-miterlimit="10"/>
<path d="M394.889 157.912V175.529" stroke="#003A47" stroke-width="1.0995" stroke-miterlimit="10"/>
<path d="M403.7 166.722H386.084" stroke="#003A47" stroke-width="1.0995" stroke-miterlimit="10"/>
<path d="M419.374 201.488H372.975V217.464H419.374V201.488Z" fill="white" stroke="#003A47" stroke-width="1.0995" stroke-miterlimit="10"/>
<path d="M419.374 201.488H416.381V217.464H419.374V201.488Z" fill="#003A47" stroke="#003A47" stroke-width="1.0995" stroke-linejoin="round"/>
<path d="M372.975 209.477H416.381" stroke="#003A47" stroke-width="1.0995" stroke-miterlimit="10"/>
<path d="M395.518 201.488V217.464" stroke="#003A47" stroke-width="1.0995" stroke-miterlimit="10"/>
<path d="M430.502 178.785V186.143L391.492 141.276L394.063 136.874L430.502 178.785Z" fill="#003A47" stroke="#003A47" stroke-width="1.0995" stroke-linejoin="round"/>
<path d="M397.749 133.931H283.252L243.717 179.725H358.211L397.749 133.931Z" fill="white" stroke="#003A47" stroke-width="1.0995" stroke-linejoin="round"/>
<path d="M430.957 179.695L394.469 137.73L397.747 133.933L437.536 179.695H430.957Z" fill="white" stroke="#003A47" stroke-width="1.0995" stroke-linejoin="round"/>
<path d="M346.421 201.488H249.424V273.189H346.421V201.488Z" fill="#85AFF6" stroke="#003A47" stroke-width="1.0995" stroke-linejoin="round"/>
<path d="M345.782 219.02H257.09" stroke="white" stroke-width="1.0995" stroke-linejoin="round"/>
<path d="M345.782 237.478H257.09" stroke="white" stroke-width="1.0995" stroke-linejoin="round"/>
<path d="M345.782 255.933H257.09" stroke="white" stroke-width="1.0995" stroke-linejoin="round"/>
<path d="M346.421 201.488V204.313H256.365V273.192H249.424V201.488H346.421Z" fill="#003A47" stroke="#003A47" stroke-width="1.0995" stroke-linejoin="round"/>
<path d="M216.127 156.826H181.893V233.511H216.127V156.826Z" fill="white" stroke="#003A47" stroke-width="1.0995" stroke-miterlimit="10"/>
<path d="M213.273 159.508H184.744V230.829H213.273V159.508Z" fill="#F2D300"/>
<path d="M199.008 156.826V233.511" stroke="#003A47" stroke-width="1.0995" stroke-miterlimit="10"/>
<path d="M181.893 175.998H216.127" stroke="#003A47" stroke-width="1.0995" stroke-miterlimit="10"/>
<path d="M181.893 195.17H216.127" stroke="#003A47" stroke-width="1.0995" stroke-miterlimit="10"/>
<path d="M181.893 214.34H216.127" stroke="#003A47" stroke-width="1.0995" stroke-miterlimit="10"/>
<path d="M181.893 156.826H164.775V233.511H181.893V156.826Z" fill="white" stroke="#003A47" stroke-width="1.0995" stroke-miterlimit="10"/>
<path d="M178.53 195.17H168.143" stroke="#003A47" stroke-width="1.0995" stroke-miterlimit="10"/>
<path d="M178.53 198.364H168.143" stroke="#003A47" stroke-width="1.0995" stroke-miterlimit="10"/>
<path d="M178.53 201.56H168.143" stroke="#003A47" stroke-width="1.0995" stroke-miterlimit="10"/>
<path d="M178.53 204.755H168.143" stroke="#003A47" stroke-width="1.0995" stroke-miterlimit="10"/>
<path d="M178.53 207.95H168.143" stroke="#003A47" stroke-width="1.0995" stroke-miterlimit="10"/>
<path d="M178.53 211.146H168.143" stroke="#003A47" stroke-width="1.0995" stroke-miterlimit="10"/>
<path d="M178.53 214.34H168.143" stroke="#003A47" stroke-width="1.0995" stroke-miterlimit="10"/>
<path d="M178.53 217.536H168.143" stroke="#003A47" stroke-width="1.0995" stroke-miterlimit="10"/>
<path d="M178.53 220.731H168.143" stroke="#003A47" stroke-width="1.0995" stroke-miterlimit="10"/>
<path d="M178.53 223.926H168.143" stroke="#003A47" stroke-width="1.0995" stroke-miterlimit="10"/>
<path d="M178.53 227.122H168.143" stroke="#003A47" stroke-width="1.0995" stroke-miterlimit="10"/>
<path d="M178.53 230.317H168.143" stroke="#003A47" stroke-width="1.0995" stroke-miterlimit="10"/>
<path d="M178.53 160.022H168.143" stroke="#003A47" stroke-width="1.0995" stroke-miterlimit="10"/>
<path d="M178.53 163.217H168.143" stroke="#003A47" stroke-width="1.0995" stroke-miterlimit="10"/>
<path d="M178.53 166.412H168.143" stroke="#003A47" stroke-width="1.0995" stroke-miterlimit="10"/>
<path d="M178.53 169.608H168.143" stroke="#003A47" stroke-width="1.0995" stroke-miterlimit="10"/>
<path d="M178.53 172.803H168.143" stroke="#003A47" stroke-width="1.0995" stroke-miterlimit="10"/>
<path d="M178.53 175.998H168.143" stroke="#003A47" stroke-width="1.0995" stroke-miterlimit="10"/>
<path d="M178.53 179.194H168.143" stroke="#003A47" stroke-width="1.0995" stroke-miterlimit="10"/>
<path d="M178.53 182.389H168.143" stroke="#003A47" stroke-width="1.0995" stroke-miterlimit="10"/>
<path d="M178.53 185.584H168.143" stroke="#003A47" stroke-width="1.0995" stroke-miterlimit="10"/>
<path d="M178.53 188.778H168.143" stroke="#003A47" stroke-width="1.0995" stroke-miterlimit="10"/>
<path d="M178.53 191.975H168.143" stroke="#003A47" stroke-width="1.0995" stroke-miterlimit="10"/>
<path d="M178.53 195.17H168.143" stroke="#003A47" stroke-width="1.0995" stroke-miterlimit="10"/>
<path d="M233.242 156.826H216.125V233.511H233.242V156.826Z" fill="white" stroke="#003A47" stroke-width="1.0995" stroke-miterlimit="10"/>
<path d="M229.879 195.17H219.492" stroke="#003A47" stroke-width="1.0995" stroke-miterlimit="10"/>
<path d="M229.879 198.364H219.492" stroke="#003A47" stroke-width="1.0995" stroke-miterlimit="10"/>
<path d="M229.879 201.56H219.492" stroke="#003A47" stroke-width="1.0995" stroke-miterlimit="10"/>
<path d="M229.879 204.755H219.492" stroke="#003A47" stroke-width="1.0995" stroke-miterlimit="10"/>
<path d="M229.879 207.95H219.492" stroke="#003A47" stroke-width="1.0995" stroke-miterlimit="10"/>
<path d="M229.879 211.146H219.492" stroke="#003A47" stroke-width="1.0995" stroke-miterlimit="10"/>
<path d="M229.879 214.34H219.492" stroke="#003A47" stroke-width="1.0995" stroke-miterlimit="10"/>
<path d="M229.879 217.536H219.492" stroke="#003A47" stroke-width="1.0995" stroke-miterlimit="10"/>
<path d="M229.879 220.731H219.492" stroke="#003A47" stroke-width="1.0995" stroke-miterlimit="10"/>
<path d="M229.879 223.926H219.492" stroke="#003A47" stroke-width="1.0995" stroke-miterlimit="10"/>
<path d="M229.879 227.122H219.492" stroke="#003A47" stroke-width="1.0995" stroke-miterlimit="10"/>
<path d="M229.879 230.317H219.492" stroke="#003A47" stroke-width="1.0995" stroke-miterlimit="10"/>
<path d="M229.879 160.022H219.492" stroke="#003A47" stroke-width="1.0995" stroke-miterlimit="10"/>
<path d="M229.879 163.217H219.492" stroke="#003A47" stroke-width="1.0995" stroke-miterlimit="10"/>
<path d="M229.879 166.412H219.492" stroke="#003A47" stroke-width="1.0995" stroke-miterlimit="10"/>
<path d="M229.879 169.608H219.492" stroke="#003A47" stroke-width="1.0995" stroke-miterlimit="10"/>
<path d="M229.879 172.803H219.492" stroke="#003A47" stroke-width="1.0995" stroke-miterlimit="10"/>
<path d="M229.879 175.998H219.492" stroke="#003A47" stroke-width="1.0995" stroke-miterlimit="10"/>
<path d="M229.879 179.194H219.492" stroke="#003A47" stroke-width="1.0995" stroke-miterlimit="10"/>
<path d="M229.879 182.389H219.492" stroke="#003A47" stroke-width="1.0995" stroke-miterlimit="10"/>
<path d="M229.879 185.584H219.492" stroke="#003A47" stroke-width="1.0995" stroke-miterlimit="10"/>
<path d="M229.879 188.778H219.492" stroke="#003A47" stroke-width="1.0995" stroke-miterlimit="10"/>
<path d="M229.879 191.975H219.492" stroke="#003A47" stroke-width="1.0995" stroke-miterlimit="10"/>
<path d="M229.879 195.17H219.492" stroke="#003A47" stroke-width="1.0995" stroke-miterlimit="10"/>
<path d="M216.127 233.512H181.893V237.797H216.127V233.512Z" fill="white" stroke="#003A47" stroke-width="1.0995" stroke-miterlimit="10"/>
<path d="M233.242 233.512H216.125V237.797L233.242 233.512Z" fill="#003A47" stroke="#003A47" stroke-width="1.0995" stroke-linejoin="round"/>
<path d="M164.775 233.512H181.893V237.797L164.775 233.512Z" fill="#003A47" stroke="#003A47" stroke-width="1.0995" stroke-linejoin="round"/>
<path d="M189.781 225.165C190.21 224.129 190.905 223.225 191.798 222.545C192.69 221.865 193.746 221.435 194.859 221.296C197.523 221.011 200.165 222.563 201.321 225.165C202.188 224.869 203.107 224.759 204.019 224.841C204.932 224.924 205.816 225.198 206.616 225.645C207.416 226.091 208.112 226.702 208.661 227.435C209.209 228.169 209.597 229.01 209.799 229.903C209.95 229.806 211.679 228.739 213.554 229.495C214.331 229.823 214.985 230.387 215.421 231.109C215.858 231.831 216.055 232.672 215.984 233.512H181.893C181.893 230.317 182.931 227.521 185.316 226.075C186.665 225.291 188.233 224.972 189.781 225.165Z" fill="#638000" stroke="#003A47" stroke-width="1.0995" stroke-miterlimit="10"/>
<path d="M198.005 227.65C198.005 228.146 197.212 228.571 196.096 228.74C195.928 229.855 195.506 230.645 195.009 230.645C194.513 230.645 194.091 229.855 193.922 228.74C192.807 228.571 192.014 228.146 192.014 227.65C192.014 227.153 192.807 226.731 193.922 226.563C194.091 225.447 194.516 224.654 195.009 224.654C195.503 224.654 195.928 225.447 196.096 226.563C197.212 226.728 198.005 227.153 198.005 227.65Z" fill="white" stroke="#003A47" stroke-width="1.0995" stroke-miterlimit="10"/>
<path d="M195.01 228.277C195.357 228.277 195.638 227.996 195.638 227.649C195.638 227.302 195.357 227.021 195.01 227.021C194.664 227.021 194.383 227.302 194.383 227.649C194.383 227.996 194.664 228.277 195.01 228.277Z" fill="#F2D300"/>
<path d="M212.647 220.737C212.647 221.233 211.854 221.658 210.739 221.826C210.57 222.942 210.148 223.732 209.652 223.732C209.155 223.732 208.733 222.942 208.565 221.826C207.449 221.658 206.656 221.233 206.656 220.737C206.656 220.24 207.449 219.818 208.565 219.65C208.733 218.534 209.158 217.741 209.652 217.741C210.145 217.741 210.57 218.534 210.739 219.65C211.854 219.812 212.647 220.235 212.647 220.737Z" fill="white" stroke="#003A47" stroke-width="1.0995" stroke-miterlimit="10"/>
<path d="M209.655 221.358C210.002 221.358 210.283 221.077 210.283 220.73C210.283 220.384 210.002 220.103 209.655 220.103C209.308 220.103 209.027 220.384 209.027 220.73C209.027 221.077 209.308 221.358 209.655 221.358Z" fill="#F2D300"/>
<path d="M260.123 179.725L255.099 184.748C254.681 185.167 254.185 185.499 253.638 185.726C253.092 185.952 252.506 186.069 251.914 186.069C251.323 186.069 250.737 185.952 250.19 185.726C249.644 185.499 249.147 185.167 248.729 184.748L243.705 179.725H260.123Z" fill="white" stroke="#003A47" stroke-width="1.0995" stroke-linejoin="round"/>
<path d="M276.553 179.725L271.532 184.748C271.113 185.167 270.617 185.499 270.07 185.726C269.523 185.953 268.937 186.069 268.345 186.069C267.753 186.069 267.167 185.953 266.62 185.726C266.073 185.499 265.577 185.167 265.158 184.748L260.123 179.725H276.553Z" fill="white" stroke="#003A47" stroke-width="1.0995" stroke-linejoin="round"/>
<path d="M292.974 179.725L287.95 184.748C287.532 185.167 287.035 185.499 286.488 185.726C285.941 185.953 285.355 186.069 284.763 186.069C284.171 186.069 283.585 185.953 283.039 185.726C282.492 185.499 281.995 185.167 281.577 184.748L276.553 179.725H292.974Z" fill="white" stroke="#003A47" stroke-width="1.0995" stroke-linejoin="round"/>
<path d="M309.393 179.725L304.369 184.748C303.951 185.167 303.454 185.499 302.907 185.726C302.36 185.953 301.774 186.069 301.182 186.069C300.59 186.069 300.004 185.953 299.458 185.726C298.911 185.499 298.414 185.167 297.996 184.748L292.975 179.725H309.393Z" fill="white" stroke="#003A47" stroke-width="1.0995" stroke-linejoin="round"/>
<path d="M325.811 179.725L320.79 184.748C320.371 185.167 319.875 185.499 319.328 185.726C318.781 185.953 318.195 186.069 317.603 186.069C317.011 186.069 316.425 185.953 315.878 185.726C315.332 185.499 314.835 185.167 314.416 184.748L309.393 179.725H325.811Z" fill="white" stroke="#003A47" stroke-width="1.0995" stroke-linejoin="round"/>
<path d="M342.232 179.725L337.208 184.748C336.789 185.167 336.293 185.499 335.746 185.726C335.199 185.953 334.613 186.069 334.021 186.069C333.429 186.069 332.843 185.953 332.296 185.726C331.75 185.499 331.253 185.167 330.834 184.748L325.811 179.725H342.232Z" fill="white" stroke="#003A47" stroke-width="1.0995" stroke-linejoin="round"/>
<path d="M358.651 179.725L353.627 184.748C353.208 185.167 352.712 185.499 352.165 185.726C351.618 185.953 351.032 186.069 350.44 186.069C349.848 186.069 349.262 185.953 348.715 185.726C348.169 185.499 347.672 185.167 347.253 184.748L342.232 179.725H358.651Z" fill="white" stroke="#003A47" stroke-width="1.0995" stroke-linejoin="round"/>
<path d="M103.741 106.006V133.781H79.7598L103.741 106.006Z" fill="#003A47" stroke="#003A47" stroke-width="1.0995" stroke-linejoin="round"/>
<path d="M143.084 106.006V133.781L167.062 106.006H143.084Z" fill="white" stroke="#003A47" stroke-width="1.0995" stroke-linejoin="round"/>
<path d="M143.085 106.006H167.064L186.734 83.2202H123.412L143.085 106.006Z" fill="white" stroke="#003A47" stroke-width="1.0995" stroke-linejoin="round"/>
<path d="M134.029 105.906V133.781H112.795V105.906C112.795 103.09 113.914 100.389 115.905 98.3976C117.896 96.4063 120.597 95.2876 123.413 95.2876C124.808 95.2876 126.188 95.5623 127.476 96.0959C128.764 96.6296 129.935 97.4118 130.921 98.3978C131.906 99.3839 132.688 100.554 133.222 101.843C133.755 103.131 134.029 104.512 134.029 105.906Z" fill="white" stroke="#003A47" stroke-width="1.0995" stroke-miterlimit="10"/>
<path d="M131.971 105.98V131.656H114.854V105.98C114.854 103.711 115.755 101.534 117.36 99.9286C118.965 98.3236 121.142 97.4219 123.412 97.4219C125.682 97.4219 127.859 98.3236 129.464 99.9286C131.069 101.534 131.971 103.711 131.971 105.98Z" fill="#F2D300"/>
<path d="M123.412 95.2876V133.781" stroke="#003A47" stroke-width="1.0995" stroke-miterlimit="10"/>
<path d="M112.795 120.949H134.032" stroke="#003A47" stroke-width="1.0995" stroke-miterlimit="10"/>
<path d="M112.795 108.12H134.032" stroke="#003A47" stroke-width="1.0995" stroke-miterlimit="10"/>
<path d="M188.757 106.006V133.781H164.775L188.757 106.006Z" fill="#003A47" stroke="#003A47" stroke-width="1.0995" stroke-linejoin="round"/>
<path d="M228.102 106.006V133.781L252.08 106.006H228.102Z" fill="white" stroke="#003A47" stroke-width="1.0995" stroke-linejoin="round"/>
<path d="M228.101 106.006H252.079L271.753 83.2202H208.428L228.101 106.006Z" fill="white" stroke="#003A47" stroke-width="1.0995" stroke-linejoin="round"/>
<path d="M219.042 105.906V133.781H197.809V105.906C197.809 104.512 198.083 103.131 198.617 101.842C199.15 100.554 199.933 99.3836 200.919 98.3976C201.905 97.4116 203.075 96.6295 204.363 96.0959C205.652 95.5622 207.033 95.2876 208.427 95.2876C209.821 95.2876 211.202 95.5623 212.49 96.0959C213.778 96.6296 214.948 97.4118 215.934 98.3978C216.92 99.3839 217.702 100.554 218.235 101.843C218.769 103.131 219.043 104.512 219.042 105.906Z" fill="white" stroke="#003A47" stroke-width="1.0995" stroke-miterlimit="10"/>
<path d="M216.986 105.98V131.656H199.869V105.98C199.869 103.711 200.771 101.534 202.376 99.9286C203.981 98.3236 206.158 97.4219 208.428 97.4219C210.698 97.4219 212.875 98.3236 214.48 99.9286C216.085 101.534 216.986 103.711 216.986 105.98Z" fill="#F2D300"/>
<path d="M208.428 95.2876V133.781" stroke="#003A47" stroke-width="1.0995" stroke-miterlimit="10"/>
<path d="M197.809 108.12H219.045" stroke="#003A47" stroke-width="1.0995" stroke-miterlimit="10"/>
<path d="M197.809 120.949H219.045" stroke="#003A47" stroke-width="1.0995" stroke-miterlimit="10"/>
<path d="M148.42 175.998H105.627V262.637H148.42V175.998Z" fill="#FF7A00" stroke="#003A47" stroke-width="1.0995" stroke-linejoin="round"/>
<path d="M127.023 153.101C132.698 153.101 138.14 155.355 142.153 159.367C146.166 163.38 148.42 168.822 148.42 174.497V175.998H105.627V174.497C105.627 168.822 107.881 163.38 111.894 159.367C115.906 155.355 121.349 153.101 127.023 153.101Z" fill="white" stroke="#003A47" stroke-width="1.0995" stroke-miterlimit="10"/>
<path d="M127.023 153.101V175.998" stroke="#003A47" stroke-width="1.0995" stroke-miterlimit="10"/>
<path d="M142.883 160.14L127.024 175.999L111.162 160.14" stroke="#003A47" stroke-width="1.0995" stroke-linejoin="round"/>
<path d="M110.754 221.748C112.092 221.748 113.176 220.664 113.176 219.326C113.176 217.989 112.092 216.904 110.754 216.904C109.416 216.904 108.332 217.989 108.332 219.326C108.332 220.664 109.416 221.748 110.754 221.748Z" fill="white" stroke="#003A47" stroke-width="1.0995" stroke-miterlimit="10"/>
<path d="M154.126 262.637H97.5V273.192H154.126V262.637Z" fill="white" stroke="#003A47" stroke-width="1.0995" stroke-miterlimit="10"/>
<path d="M163.36 262.637H154.125V273.192H163.36V262.637Z" fill="white" stroke="#003A47" stroke-width="1.0995" stroke-miterlimit="10"/>
<path d="M142.596 182.769H110.752V210.818H142.596V182.769Z" stroke="white" stroke-width="1.0995" stroke-linejoin="round"/>
<path d="M142.596 228.294H110.752V256.343H142.596V228.294Z" stroke="white" stroke-width="1.0995" stroke-linejoin="round"/>
<path d="M212.652 39.0269H195.641V60.1951H212.652V39.0269Z" fill="white" stroke="#003A47" stroke-width="1.0995" stroke-linejoin="round"/>
<path d="M223.574 39.0269H212.65V60.1951H223.574V39.0269Z" fill="white" stroke="#003A47" stroke-width="1.0995" stroke-linejoin="round"/>
<path d="M214.546 35.6631H193.74V39.0266H214.546V35.6631Z" fill="white" stroke="#003A47" stroke-width="1.0995" stroke-linejoin="round"/>
<path d="M225.324 35.6631H214.549V39.0266H225.324V35.6631Z" fill="white" stroke="#003A47" stroke-width="1.0995" stroke-linejoin="round"/>
<path d="M223.576 39.0269H195.641V40.5132H223.576V39.0269Z" fill="#003A47" stroke="#003A47" stroke-width="1.0995" stroke-linejoin="round"/>
<path d="M377.057 59.0392C393.209 59.0392 406.302 45.9459 406.302 29.7945C406.302 13.6431 393.209 0.549805 377.057 0.549805C360.906 0.549805 347.812 13.6431 347.812 29.7945C347.812 45.9459 360.906 59.0392 377.057 59.0392Z" fill="white" stroke="#003A47" stroke-width="1.0995" stroke-miterlimit="10"/>
<path d="M324.178 25.8628C324.7 25.712 325.249 25.6803 325.784 25.7702C326.32 25.86 326.829 26.0692 327.273 26.3821C327.673 26.688 328.004 27.0748 328.244 27.5172C328.485 27.9596 328.629 28.4477 328.668 28.9496C329.103 27.9789 329.857 27.1864 330.805 26.7044C331.41 26.4211 332.067 26.2675 332.735 26.2538C333.403 26.24 334.066 26.3663 334.682 26.6246" stroke="#003A47" stroke-width="1.0995" stroke-linecap="round" stroke-linejoin="round"/>
<path d="M49.2237 274.086V195.701C49.2234 189.233 46.7113 183.018 42.2171 178.367L29.4277 165.138L30.1324 164.148L48.2452 177.556C48.6809 177.879 49.1975 178.073 49.7375 178.119C50.2775 178.165 50.8196 178.06 51.3034 177.816C51.7873 177.572 52.1939 177.199 52.478 176.737C52.7621 176.276 52.9125 175.745 52.9125 175.203V93.6793C52.9121 93.5893 52.9296 93.5001 52.9639 93.4169C52.9981 93.3336 53.0485 93.258 53.1122 93.1943C53.1759 93.1307 53.2515 93.0803 53.3347 93.046C53.418 93.0117 53.5072 92.9943 53.5972 92.9946C53.7706 92.995 53.9375 93.0611 54.0641 93.1798C54.1906 93.2984 54.2675 93.4606 54.279 93.6337L57.1319 135.106C57.1543 135.421 57.2793 135.72 57.4877 135.957C57.6962 136.194 57.9767 136.356 58.2861 136.418C58.5956 136.481 58.917 136.44 59.2011 136.303C59.4852 136.165 59.7164 135.938 59.8592 135.656L69.1538 117.178H70.4376L63.5137 137.95C61.5524 143.833 60.6098 150.008 60.7265 156.208L61.6651 206.353C61.6672 206.476 61.7069 206.596 61.7787 206.696C61.8506 206.796 61.9512 206.871 62.0671 206.912C62.1831 206.954 62.3089 206.959 62.4277 206.926C62.5465 206.894 62.6527 206.827 62.7321 206.733L66.592 202.151L67.7559 202.721L64.381 211.485C62.6064 216.09 61.6964 220.983 61.6965 225.918V273.578L49.2237 274.086Z" fill="white" stroke="#003A47" stroke-width="1.0995" stroke-miterlimit="10"/>
<path d="M67.1982 203.07C67.559 203.07 67.8515 202.778 67.8515 202.417C67.8515 202.056 67.559 201.764 67.1982 201.764C66.8374 201.764 66.5449 202.056 66.5449 202.417C66.5449 202.778 66.8374 203.07 67.1982 203.07Z" fill="white" stroke="#003A47" stroke-width="1.0995" stroke-miterlimit="10"/>
<path d="M29.6248 165.087C29.9494 165.087 30.2125 164.823 30.2125 164.499C30.2125 164.174 29.9494 163.911 29.6248 163.911C29.3002 163.911 29.0371 164.174 29.0371 164.499C29.0371 164.823 29.3002 165.087 29.6248 165.087Z" fill="white" stroke="#003A47" stroke-width="1.0995" stroke-miterlimit="10"/>
<path d="M52.9119 154.383C51.3029 155.783 49.1832 156.95 46.7697 156.95C44.4789 156.935 42.2825 156.036 40.6389 154.44C41.2094 155.065 43.777 158.126 43.3149 162.453C43.0558 164.639 42.1017 166.683 40.5932 168.285C41.2056 168.801 41.6978 169.445 42.0355 170.171C42.3731 170.898 42.5481 171.689 42.5481 172.49C42.5481 173.291 42.3731 174.082 42.0355 174.808C41.6978 175.535 41.2056 176.179 40.5932 176.695C39.3986 179.874 37.4396 182.71 34.8892 184.952C32.3389 187.194 29.2756 188.774 25.97 189.552C22.6643 190.33 19.218 190.282 15.9353 189.412C12.6527 188.543 9.6346 186.878 7.14768 184.566C4.66076 182.253 2.78149 179.364 1.67582 176.153C0.570147 172.942 0.272092 169.508 0.807971 166.155C1.34385 162.802 2.69717 159.632 4.74844 156.925C6.79971 154.219 9.48582 152.059 12.5696 150.637C9.79441 147.771 8.23456 143.943 8.21609 139.953C8.21609 133.078 12.8691 127.195 19.4507 124.801C11.2259 119.475 8.56414 108.7 13.1087 100.509C17.3367 92.8864 26.8025 89.2889 35.3611 92.3187C27.3017 76.6279 35.3183 65.2992 44.5758 62.8829C53.5053 60.5521 64.1836 66.7456 63.1337 80.6705C66.2932 78.8859 70.0031 78.3392 73.5431 79.1366C77.083 79.9339 80.2003 82.0184 82.2896 84.9852C84.3789 87.952 85.291 91.5894 84.8489 95.191C84.4068 98.7926 82.642 102.101 79.8971 104.475C85.9309 105.505 90.4356 110.523 90.7751 116.377C91.1317 122.508 86.841 128.191 80.6446 129.637C89.3173 128.042 97.5763 133.742 99.094 141.716C100.481 148.997 95.9559 156.714 88.3016 159.25C88.3986 168.151 83.6001 175.463 75.3211 176.11C68.4058 176.652 62.1152 173.828 60.8742 165.09C57.6933 165.768 54.4695 164.402 52.8862 161.755C52.2434 160.632 51.9073 159.359 51.9118 158.065C51.9164 156.771 52.2613 155.501 52.9119 154.383Z" fill="#F2D300" stroke="#003A47" stroke-width="1.0995" stroke-miterlimit="10"/>
<path d="M47.8086 94.0703C47.8657 94.1273 49.1352 95.3969 50.8526 94.9832C51.4694 94.8266 52.0263 94.4912 52.4531 94.0191C52.88 93.5471 53.1579 92.9595 53.2519 92.33C53.7071 92.7277 54.2503 93.0115 54.8367 93.1582C55.4232 93.3049 56.036 93.3102 56.6249 93.1737C57.2138 93.0372 57.7618 92.7628 58.2239 92.3731C58.686 91.9834 59.0489 91.4895 59.2828 90.9321" stroke="#003A47" stroke-width="1.0995" stroke-linecap="round" stroke-linejoin="round"/>
<path d="M60.1738 88.7611L60.656 87.814" stroke="#003A47" stroke-width="1.0995" stroke-linecap="round" stroke-linejoin="round"/>
<path d="M49.2227 248.168V246.795C50.9516 245.618 52.9383 244.874 55.0153 244.625C57.0923 244.377 59.1985 244.632 61.1562 245.369C61.1562 245.818 61.1705 246.3 61.199 246.815C61.2494 247.746 61.4161 248.667 61.6954 249.557C59.8142 248.505 57.7415 247.84 55.5994 247.602C53.4574 247.363 51.2892 247.555 49.2227 248.168Z" fill="#003A47" stroke="#003A47" stroke-width="1.0995" stroke-linejoin="round"/>
<path d="M99.3595 145.037C99.2283 146.546 98.6035 151.513 94.5097 155.499C92.7527 157.203 90.6308 158.485 88.3047 159.247V167.013C91.879 164.61 94.773 161.326 96.707 157.478C98.6411 153.63 99.5498 149.348 99.3453 145.046L99.3595 145.037Z" fill="#003A47" stroke="#003A47" stroke-width="1.0995" stroke-linejoin="round"/>
<path d="M52.9102 161.751C53.5831 162.898 54.558 163.839 55.7288 164.47C57.3184 165.291 59.1513 165.51 60.8896 165.086L60.9495 168.275C59.0271 168.433 57.1183 167.842 55.6207 166.626C54.123 165.411 53.1521 163.665 52.9102 161.751Z" fill="#003A47" stroke="#003A47" stroke-width="1.0995" stroke-linejoin="round"/>
<path d="M19.4536 124.802C20.2287 125.164 21.0463 125.426 21.8871 125.583C24.0272 125.957 26.23 125.685 28.2148 124.802C24.0257 127.794 18.8207 129.001 13.7422 128.16C15.5034 126.817 17.4189 125.69 19.4479 124.802H19.4536Z" fill="#003A47" stroke="#003A47" stroke-width="1.0995" stroke-linejoin="round"/>
<path d="M55.5039 131.568C55.8498 131.147 56.2857 130.809 56.7795 130.58C57.2733 130.35 57.8123 130.234 58.3568 130.241C58.8594 130.267 59.3509 130.398 59.7992 130.627C60.2475 130.855 60.6426 131.176 60.9586 131.568C60.7685 130.521 60.9427 129.44 61.4521 128.506C61.7886 127.931 62.2416 127.433 62.782 127.044C63.3225 126.654 63.9384 126.382 64.5903 126.244" stroke="#003A47" stroke-width="1.0995" stroke-linecap="round" stroke-linejoin="round"/>
<path d="M24.7334 84.5508C25.9151 84.5508 26.873 83.5928 26.873 82.4111C26.873 81.2294 25.9151 80.2715 24.7334 80.2715C23.5517 80.2715 22.5938 81.2294 22.5938 82.4111C22.5938 83.5928 23.5517 84.5508 24.7334 84.5508Z" fill="#F2D300" stroke="#003A47" stroke-width="1.0995" stroke-miterlimit="10"/>
<path d="M69.6922 188.857C71.4994 188.857 72.9644 187.392 72.9644 185.585C72.9644 183.778 71.4994 182.312 69.6922 182.312C67.885 182.312 66.4199 183.778 66.4199 185.585C66.4199 187.392 67.885 188.857 69.6922 188.857Z" fill="#F2D300" stroke="#003A47" stroke-width="1.0995" stroke-miterlimit="10"/>
<path d="M23.838 276.366C23.8222 279.983 25.176 283.473 27.6274 286.132C30.0788 288.792 33.446 290.426 37.0525 290.705C55.4934 292.131 77.9654 294.413 77.877 298.031C77.6858 305.734 34.7987 304.387 39.5716 315.031C45.4256 328.066 250.247 324.671 264.611 324.671C305.042 324.671 390.853 321.136 400.804 311.548C409.848 302.829 388.462 291.087 400.804 288.482C407.705 287.027 434.017 285.886 434.017 273.211H88.3184C69.4125 273.211 42.4986 273.716 23.8437 276.375L23.838 276.366Z" fill="white" stroke="#003A47" stroke-width="1.0995" stroke-miterlimit="10"/>
<path d="M240.404 324.866C249.75 314.496 250.083 307.404 249.447 303.595C246.546 286.193 209.892 273.32 161.077 273.181H97.5093C97.5093 273.181 93.8006 279.303 118.906 282.181C148.416 285.562 196.923 289.271 197.839 301.966C198.854 316.019 144.248 325.328 113.172 323.91C134.093 324.464 155.023 324.822 175.963 324.986C197.441 325.159 218.921 325.119 240.404 324.866Z" fill="white" stroke="#003A47" stroke-width="1.0995" stroke-miterlimit="10"/>
<path d="M110.81 323.842L108.52 297.376" stroke="#003A47" stroke-width="1.0995" stroke-miterlimit="10"/>
<path d="M118.909 302.34L109.666 310.607" stroke="#003A47" stroke-width="1.0995" stroke-miterlimit="10"/>
<path d="M104.113 294.553C104.247 295.98 105.205 297.184 106.449 297.512C108.038 297.928 109.89 296.887 110.42 295.021C112.218 295.877 114.297 295.007 114.936 293.384C115.484 291.997 114.894 290.268 113.459 289.413C114.779 287.909 114.36 285.815 113.225 285.133C112.255 284.563 110.611 284.897 109.664 286.223C109.234 284.663 107.779 283.707 106.449 283.889C104.854 284.103 103.573 285.938 104.113 287.861C102.312 287.881 100.843 289.147 100.609 290.662C100.327 292.491 101.879 294.465 104.113 294.553Z" fill="white" stroke="#003A47" stroke-width="1.0995" stroke-miterlimit="10"/>
<path d="M107.86 292.731C108.963 292.731 109.857 291.837 109.857 290.734C109.857 289.631 108.963 288.737 107.86 288.737C106.757 288.737 105.863 289.631 105.863 290.734C105.863 291.837 106.757 292.731 107.86 292.731Z" fill="#FF7A00"/>
<path d="M117.674 297.661C116.818 298.075 116.208 298.836 116.159 299.658C116.088 300.888 117.263 302.191 118.964 302.274C119.434 303.909 121.126 304.785 122.538 304.331C123.146 304.109 123.662 303.689 124.001 303.138C124.341 302.587 124.485 301.938 124.41 301.295C124.979 301.256 125.514 301.008 125.911 300.599C126.309 300.19 126.542 299.648 126.565 299.078C126.588 298.508 126.399 297.949 126.036 297.509C125.673 297.069 125.16 296.779 124.595 296.694C124.86 296.208 124.931 295.64 124.795 295.104C124.66 294.567 124.327 294.102 123.864 293.8C123.4 293.498 122.84 293.382 122.294 293.474C121.749 293.567 121.258 293.862 120.921 294.3C120.468 293.916 119.886 293.719 119.293 293.748C118.699 293.777 118.14 294.031 117.727 294.458C117.314 294.884 117.078 295.452 117.069 296.046C117.059 296.64 117.275 297.215 117.674 297.655V297.661Z" fill="white" stroke="#003A47" stroke-width="1.0995" stroke-miterlimit="10"/>
<path d="M121.338 300.201C122.206 300.201 122.909 299.498 122.909 298.63C122.909 297.761 122.206 297.058 121.338 297.058C120.469 297.058 119.766 297.761 119.766 298.63C119.766 299.498 120.469 300.201 121.338 300.201Z" fill="#FF7A00"/>
<path d="M110.721 323.673C113.13 322.894 115.306 321.525 117.051 319.689C118.795 317.853 120.051 315.609 120.706 313.163C118.282 313.916 116.092 315.277 114.344 317.117C112.596 318.957 111.349 321.214 110.721 323.673Z" fill="#F2D300" stroke="#003A47" stroke-width="1.0995" stroke-miterlimit="10"/>
<path d="M110.721 323.673C110.217 319.098 108.654 314.703 106.155 310.838C103.657 306.972 100.292 303.742 96.3281 301.403C96.508 306.065 97.9393 310.593 100.472 314.511C103.004 318.429 106.544 321.594 110.721 323.673Z" fill="#F2D300" stroke="#003A47" stroke-width="1.0995" stroke-miterlimit="10"/>
<path d="M246.733 273.18C244.829 273.279 242.944 272.762 241.358 271.706C238.08 269.477 237.626 265.789 237.566 265.23C239.527 265.674 241.366 266.547 242.951 267.785C244.535 269.022 245.827 270.595 246.733 272.39C247.285 271.189 248.008 270.073 248.878 269.078C250.583 267.157 252.772 265.728 255.217 264.941C255.032 265.846 254.227 269.175 251.112 271.409C249.811 272.334 248.311 272.94 246.733 273.18Z" fill="#F2D300" stroke="#003A47" stroke-width="1.0995" stroke-miterlimit="10"/>
<path d="M336.945 299.943L337.365 272.633" stroke="#003A47" stroke-width="1.0995" stroke-miterlimit="10"/>
<path d="M328.252 277.773L337.153 286.286" stroke="#003A47" stroke-width="1.0995" stroke-miterlimit="10"/>
<path d="M337.317 272.989C338.296 274.558 340.39 274.914 341.719 273.91C342.318 273.428 342.714 272.738 342.829 271.978C342.944 271.218 342.77 270.443 342.341 269.805C343.034 269.553 343.606 269.049 343.945 268.394C344.283 267.739 344.362 266.98 344.167 266.269C343.972 265.559 343.517 264.947 342.891 264.557C342.266 264.166 341.517 264.025 340.792 264.162C340.863 262.136 339.163 260.664 337.591 260.85C336.296 261.001 335.138 262.276 335.104 263.897C333.477 263.258 331.723 264.145 331.289 265.577C331.127 266.213 331.19 266.886 331.466 267.482C331.743 268.077 332.216 268.559 332.807 268.846C332.508 269.137 332.271 269.486 332.112 269.872C331.952 270.257 331.873 270.671 331.879 271.089C331.885 271.506 331.976 271.917 332.147 272.298C332.317 272.679 332.564 273.021 332.871 273.303C333.178 273.586 333.54 273.802 333.934 273.94C334.328 274.077 334.746 274.133 335.162 274.104C335.578 274.074 335.984 273.96 336.355 273.768C336.725 273.577 337.053 273.311 337.317 272.989Z" fill="white" stroke="#003A47" stroke-width="1.0995" stroke-miterlimit="10"/>
<path d="M337.737 270.042C338.919 270.042 339.877 269.084 339.877 267.902C339.877 266.721 338.919 265.763 337.737 265.763C336.556 265.763 335.598 266.721 335.598 267.902C335.598 269.084 336.556 270.042 337.737 270.042Z" fill="#FF7A00"/>
<path d="M328.653 277.89C329.251 277.792 329.784 277.46 330.137 276.968C330.489 276.475 330.632 275.863 330.533 275.266C330.435 274.668 330.103 274.135 329.61 273.782C329.118 273.43 328.506 273.287 327.909 273.386C328.222 272.29 327.663 271.238 326.89 270.972C326 270.664 324.708 271.366 324.499 272.71C323.723 271.854 322.44 271.854 321.803 272.544C321.55 272.85 321.404 273.23 321.388 273.627C321.372 274.024 321.485 274.415 321.712 274.741C321.403 274.807 321.111 274.935 320.853 275.118C320.595 275.3 320.377 275.534 320.212 275.804C320.048 276.074 319.94 276.374 319.896 276.687C319.852 277 319.872 277.319 319.955 277.624C320.038 277.929 320.183 278.213 320.38 278.461C320.577 278.708 320.823 278.912 321.101 279.061C321.38 279.21 321.687 279.3 322.002 279.326C322.316 279.353 322.634 279.315 322.933 279.214C323.197 279.87 323.687 280.41 324.314 280.736C324.941 281.062 325.664 281.154 326.353 280.994C327.041 280.835 327.65 280.434 328.069 279.865C328.489 279.296 328.691 278.595 328.639 277.89H328.653Z" fill="white" stroke="#003A47" stroke-width="1.0995" stroke-miterlimit="10"/>
<path d="M325.367 277.711C326.101 277.711 326.696 277.115 326.696 276.381C326.696 275.647 326.101 275.052 325.367 275.052C324.632 275.052 324.037 275.647 324.037 276.381C324.037 277.115 324.632 277.711 325.367 277.711Z" fill="#FF7A00"/>
<path d="M336.955 299.318C337.803 297.281 339.1 295.461 340.749 293.995C343.049 291.985 345.911 290.732 348.948 290.403C348.731 293.503 347.346 296.406 345.071 298.524C342.797 300.642 339.803 301.818 336.695 301.814C336.107 301.789 331.714 301.529 328.87 297.72C325.706 293.484 327.269 288.631 327.412 288.212C329.775 289.164 331.875 290.67 333.536 292.603C335.196 294.535 336.369 296.838 336.955 299.318Z" fill="#F2D300" stroke="#003A47" stroke-width="1.0995" stroke-miterlimit="10"/>
<path d="M345.267 294.328L336.814 300.761L330.691 293.92" stroke="#003A47" stroke-width="1.0995" stroke-miterlimit="10"/>
<path d="M166.076 311.736V319.074" stroke="#003A47" stroke-width="1.0995" stroke-miterlimit="10"/>
<path d="M168.529 318.527V316.119" stroke="#003A47" stroke-width="1.0995" stroke-miterlimit="10"/>
<path d="M236.795 324.914V319.567" stroke="#003A47" stroke-width="1.0995" stroke-miterlimit="10"/>
<path d="M234.621 324.914V322.241" stroke="#003A47" stroke-width="1.0995" stroke-miterlimit="10"/>
<path d="M53.9648 292.221V288.983" stroke="#003A47" stroke-width="1.0995" stroke-miterlimit="10"/>
<path d="M57.2969 292.486V286.152" stroke="#003A47" stroke-width="1.0995" stroke-miterlimit="10"/>
<path d="M162.078 319.89V316.692" stroke="#003A47" stroke-width="1.0995" stroke-miterlimit="10"/>
<path d="M374.62 273.191C373.64 271.358 373.23 269.274 373.441 267.206C373.652 265.139 374.475 263.181 375.804 261.583C378.857 257.98 384.189 256.787 388.765 258.779C388.733 253.435 392.696 249.079 397.403 248.508C402.915 247.826 408.595 252.434 408.684 258.779C409.06 258.587 413.493 256.419 418.044 258.779C422.951 261.321 423.31 266.698 423.324 266.961C423.581 266.795 426.568 264.964 429.803 266.259C432.488 267.343 434.208 270.139 434.003 273.191H374.62Z" fill="#638000" stroke="#003A47" stroke-width="1.0995" stroke-miterlimit="10"/>
<path d="M393.067 266.795C392.964 266.361 392.984 265.906 393.122 265.482C393.26 265.057 393.513 264.679 393.851 264.387C394.285 264.049 394.819 263.865 395.369 263.865C395.919 263.865 396.453 264.049 396.887 264.387C396.884 263.612 397.174 262.864 397.698 262.291C398.221 261.719 398.941 261.364 399.714 261.298" stroke="#003A47" stroke-width="1.0995" stroke-miterlimit="10"/>
<path d="M374.619 273.191H434.001C434.025 274.285 433.818 275.372 433.394 276.381L374.619 273.191Z" fill="#003A47" stroke="#003A47" stroke-width="1.0995" stroke-linejoin="round"/>
<path d="M377.054 260.343C375.242 261.882 374.011 263.995 373.569 266.332C373.126 268.668 373.497 271.085 374.621 273.181H369.066C369.228 270.546 370.042 267.993 371.437 265.752C372.831 263.51 374.762 261.652 377.054 260.343Z" fill="#003A47" stroke="#003A47" stroke-width="1.0995" stroke-linejoin="round"/>
<path d="M425.364 248.426C425.364 248.923 424.571 249.348 423.456 249.516C423.287 250.631 422.865 251.422 422.369 251.422C421.872 251.422 421.45 250.631 421.282 249.516C420.166 249.348 419.373 248.923 419.373 248.426C419.373 247.93 420.166 247.508 421.282 247.339C421.45 246.224 421.875 245.431 422.369 245.431C422.862 245.431 423.287 246.224 423.456 247.339C424.571 247.508 425.364 247.93 425.364 248.426Z" fill="white" stroke="#003A47" stroke-width="1.0995" stroke-miterlimit="10"/>
<path d="M422.368 249.054C422.714 249.054 422.996 248.773 422.996 248.426C422.996 248.08 422.714 247.799 422.368 247.799C422.021 247.799 421.74 248.08 421.74 248.426C421.74 248.773 422.021 249.054 422.368 249.054Z" fill="#F2D300"/>
<path d="M88.3176 273.192V230.316C81.9472 226.291 73.7424 226.67 67.9083 231.218C65.2122 233.347 63.1906 236.211 62.0879 239.464C60.9852 242.718 60.8486 246.221 61.6947 249.55C55.5268 246.158 48.0723 247.051 43.4364 251.547C37.8305 256.968 39.2398 264.853 39.354 265.438C35.2458 263.478 30.4445 264.105 27.2436 266.987C23.2496 270.576 23.783 275.831 23.8429 276.35C30.0194 275.668 41.739 273.654 88.3176 273.192Z" fill="#638000" stroke="#003A47" stroke-width="1.0995" stroke-miterlimit="10"/>
<path d="M59.8523 273.771C59.7239 273.485 58.3745 270.444 60.0006 267.757C61.5269 265.235 65.0302 264.099 68.2996 265.355C68.2996 265.141 68.2197 260.622 72.0825 258.148C75.9453 255.675 79.9564 257.609 80.1618 257.712" stroke="#003A47" stroke-width="1.0995" stroke-miterlimit="10"/>
</svg>
