<svg width="376" height="411" viewBox="0 0 376 411" fill="none" xmlns="http://www.w3.org/2000/svg">
<path d="M315.781 409.375H306.568C306.357 408.338 305.631 407.575 304.77 407.575C303.91 407.575 303.186 408.338 302.976 409.375H267.783C267.561 409.38 267.345 409.303 267.175 409.161C267.005 409.018 266.892 408.819 266.857 408.599C266.822 408.38 266.868 408.155 266.986 407.967C267.104 407.779 267.286 407.639 267.498 407.575C273.074 405.846 280.196 402.732 282.703 397.752H311.762L315.781 409.375Z" fill="#BE5C4B" stroke="#003A47" stroke-width="1.0995" stroke-linejoin="round"/>
<path d="M282.711 397.752H311.77L313.391 402.453L282.711 397.752Z" fill="#003A47" stroke="#003A47" stroke-width="1.0995" stroke-linejoin="round"/>
<path d="M283.892 401.315L278.408 400.597" stroke="#F2D300" stroke-width="1.0995" stroke-miterlimit="10" stroke-linecap="round"/>
<path d="M281.538 403.354L275.809 402.545" stroke="#F2D300" stroke-width="1.0995" stroke-miterlimit="10" stroke-linecap="round"/>
<path d="M343.983 409.375H331.921C331.711 408.338 330.984 407.575 330.124 407.575C329.263 407.575 328.54 408.338 328.329 409.375H290.858C290.635 409.38 290.419 409.303 290.249 409.161C290.079 409.018 289.966 408.819 289.931 408.599C289.897 408.38 289.942 408.155 290.06 407.967C290.178 407.779 290.36 407.639 290.573 407.575C296.148 405.846 303.27 402.732 305.777 397.752H340.317L343.983 409.375Z" fill="#BE5C4B" stroke="#003A47" stroke-width="1.0995" stroke-linejoin="round"/>
<path d="M305.787 397.752H340.327L341.284 400.795L305.787 397.752Z" fill="#003A47" stroke="#003A47" stroke-width="1.0995" stroke-linejoin="round"/>
<path d="M307.824 401.315L302.34 400.597" stroke="#F2D300" stroke-width="1.0995" stroke-miterlimit="10" stroke-linecap="round"/>
<path d="M305.469 403.354L299.74 402.545" stroke="#F2D300" stroke-width="1.0995" stroke-miterlimit="10" stroke-linecap="round"/>
<path d="M340.274 172.725H282.701V397.752H340.274V172.725Z" fill="white" stroke="#003A47" stroke-width="1.0995" stroke-linejoin="round"/>
<path d="M305.734 397.752V202.592L299.307 199.954" stroke="#003A47" stroke-width="1.0995" stroke-linecap="round" stroke-linejoin="round"/>
<path d="M340.274 389.878H282.701" stroke="#003A47" stroke-width="1.0995" stroke-linecap="round" stroke-linejoin="round"/>
<path d="M305.734 182.1V194.274H304.269C303.617 194.274 302.972 194.145 302.37 193.896C301.767 193.646 301.22 193.28 300.759 192.819C300.298 192.358 299.933 191.811 299.684 191.208C299.434 190.606 299.306 189.96 299.307 189.308V173.554" stroke="#003A47" stroke-width="1.0995" stroke-linecap="round" stroke-linejoin="round"/>
<path d="M301.463 172.443L340.276 182.201V185.574L301.463 172.443Z" fill="#003A47" stroke="#003A47" stroke-width="1.0995" stroke-linejoin="round"/>
<path d="M340.283 225.412V244.434C340.315 245.665 342.129 246.306 342.967 245.403C343.483 244.847 343.966 244.26 344.411 243.645C346.189 241.169 347.36 238.31 347.83 235.298C347.45 242.454 345.659 249.464 342.562 255.926C342.382 256.304 342.329 256.731 342.411 257.141C342.492 257.552 342.704 257.925 343.015 258.206C343.211 258.383 343.441 258.519 343.691 258.605C343.941 258.691 344.206 258.726 344.47 258.707C344.734 258.688 344.991 258.616 345.226 258.495C345.461 258.374 345.67 258.207 345.839 258.003L347.089 256.491L345.217 259.986C345.024 260.348 344.96 260.766 345.036 261.169C345.113 261.573 345.324 261.938 345.636 262.205C345.824 262.367 346.043 262.488 346.28 262.561C346.517 262.634 346.767 262.658 347.013 262.63C347.259 262.602 347.497 262.524 347.712 262.4C347.926 262.276 348.113 262.109 348.26 261.909L351.505 257.419L350.317 259.274C350.066 259.664 349.975 260.136 350.062 260.592C350.15 261.047 350.409 261.452 350.787 261.721L350.813 261.741C351.152 261.982 351.564 262.099 351.98 262.071C352.395 262.043 352.788 261.872 353.092 261.587C358.804 256.179 362.651 249.096 364.077 241.36L365.841 225.432L340.283 225.412Z" fill="#BE5C4B" stroke="#003A47" stroke-width="1.0995" stroke-miterlimit="10"/>
<path d="M347.084 256.496C348.89 253.861 350.198 250.918 350.944 247.812" stroke="#003A47" stroke-width="1.0995" stroke-linecap="round" stroke-linejoin="round"/>
<path d="M351.506 257.412C353.519 254.834 355.02 251.895 355.93 248.754" stroke="#003A47" stroke-width="1.0995" stroke-linecap="round" stroke-linejoin="round"/>
<path d="M233.631 133.792C233.631 133.792 243.839 84.5489 306.95 85.056C320.972 85.1671 349.304 82.1644 364.782 110.143C381.34 140.096 373.406 214.338 367.01 217.882L340.293 217.68V182.2L301.463 172.454C301.463 172.454 292.894 177.63 282.661 176.887C282.661 176.887 271.567 174.787 271.909 149.033C271.909 149.033 257.949 173.015 240.548 173.895C211.444 173.895 182.936 151.811 182.936 151.811L184.693 130.279C184.693 130.279 207.356 126.484 233.631 133.792Z" fill="#638000" stroke="#003A47" stroke-width="1.0995" stroke-miterlimit="10"/>
<path d="M271.909 149.023C271.209 140.159 271.048 131.26 271.424 122.377L271.909 149.023Z" fill="white"/>
<path d="M271.909 149.023C271.209 140.159 271.048 131.26 271.424 122.377" stroke="#003A47" stroke-width="1.0995" stroke-linejoin="round"/>
<path d="M320.88 78.3105L326.768 85.5667L315.136 93.2586L308.678 85.0567L320.88 78.3105Z" fill="#F2D300" stroke="#003A47" stroke-width="1.0995" stroke-miterlimit="10"/>
<path d="M297.627 81.5947L304.516 85.0618L298.499 93.2267L292.756 85.7883L297.627 81.5947Z" fill="#F2D300" stroke="#003A47" stroke-width="1.0995" stroke-miterlimit="10"/>
<path d="M301.463 172.443L292.723 169.662" stroke="#003A47" stroke-width="1.0995" stroke-linecap="round" stroke-linejoin="round"/>
<path d="M340.275 182.2V137.929" stroke="#003A47" stroke-width="1.0995" stroke-linecap="round" stroke-linejoin="round"/>
<path d="M313.502 121.602H331.686V134.678C331.686 135.236 331.576 135.789 331.363 136.305C331.149 136.82 330.836 137.289 330.441 137.684C330.047 138.078 329.578 138.391 329.062 138.605C328.547 138.819 327.994 138.928 327.436 138.928H317.75C316.623 138.928 315.543 138.48 314.747 137.684C313.95 136.887 313.503 135.807 313.502 134.681V121.602Z" fill="#FF7A00" stroke="#003A47" stroke-width="1.0995" stroke-linejoin="round"/>
<path d="M331.675 117.893H313.49V121.602H331.675V117.893Z" fill="white" stroke="#003A47" stroke-width="1.0995" stroke-linejoin="round"/>
<path d="M340.275 217.681H366.707L365.853 225.413H340.275V217.681Z" fill="#F2D300" stroke="#003A47" stroke-width="1.0995" stroke-miterlimit="10"/>
<path d="M184.679 130.268L182.921 151.799L175.799 149.19L178.648 130.268H184.679Z" fill="#F2D300" stroke="#003A47" stroke-width="1.0995" stroke-miterlimit="10"/>
<path d="M318.848 61.4735L319.133 68.6242C320.572 67.7601 321.872 66.6824 322.988 65.4278C326.551 61.4393 326.406 56.4224 326.742 54.2231C329.771 49.2062 327.882 43.6822 324.936 40.7707C320.07 35.9504 311.994 37.9959 309.914 38.6568C307.834 39.3178 304.871 40.5855 304.871 40.5855C304.871 40.5855 299.305 36.6341 293.738 39.6454C288.171 42.6566 288.151 50.2917 293.148 53.6248C293.98 50.9941 295.473 48.6205 297.483 46.7308C299.494 44.841 301.955 43.4982 304.632 42.8304C304.558 42.9871 303.777 44.7078 304.732 46.4343C305.786 48.306 307.917 48.4057 308.025 48.4085C308.831 49.5046 309.894 50.3864 311.119 50.9769C312.345 51.5674 313.697 51.8486 315.056 51.7959C314.882 52.2745 313.786 55.4396 315.555 58.4765C316.332 59.7793 317.478 60.8223 318.848 61.4735Z" fill="#94424F" stroke="#003A47" stroke-width="1.0995" stroke-linejoin="round"/>
<path d="M320.885 78.3106L308.68 85.0539H303.096C303.096 85.0539 298.926 84.3103 296.601 82.1737C292.969 78.8348 290.006 73.9119 291.63 60.2373C292.701 51.2121 296.618 46.7706 300.21 44.5884C302.238 43.3831 304.514 42.659 306.865 42.4717C306.754 43.0415 306.276 45.8248 308.028 48.4002C310.429 51.9328 314.794 51.7989 315.056 51.7875C314.928 52.1379 313.512 56.1976 315.931 59.3143C316.696 60.28 317.702 61.0268 318.848 61.4794V61.5165C319.434 61.1996 320.084 61.0206 320.749 60.9931C321.415 60.9657 322.078 61.0904 322.687 61.3579C323.297 61.6253 323.838 62.0285 324.269 62.5366C324.699 63.0447 325.008 63.6443 325.172 64.2898C325.335 64.9353 325.349 65.6097 325.213 66.2615C325.077 66.9133 324.793 67.5254 324.385 68.0512C323.976 68.5769 323.452 69.0024 322.854 69.2953C322.256 69.5882 321.599 69.7407 320.933 69.7412L320.885 78.3106Z" fill="#BE5C4B" stroke="#003A47" stroke-width="1.0995" stroke-linejoin="round"/>
<path d="M315.055 51.7811C318.832 52.499 322.61 49.9834 322.61 49.9834" stroke="#003A47" stroke-width="1.0995" stroke-linecap="round" stroke-linejoin="round"/>
<path d="M313.764 76.6243C313.764 76.6243 310.653 68.0605 301.821 68.0605C292.99 68.0605 291.816 73.9862 292.457 76.0374C294.292 81.9175 299.331 85.057 303.101 85.057H308.684L315.06 81.5358C314.797 79.8585 314.363 78.2127 313.764 76.6243Z" fill="#94424F" stroke="#003A47" stroke-width="1.0995" stroke-miterlimit="10"/>
<path d="M300.204 57.6641C300.204 57.6641 294.66 65.131 299.084 67.4841C300.563 68.2704 302.81 67.3075 302.81 67.3075" stroke="#003A47" stroke-width="1.0995" stroke-linecap="round" stroke-linejoin="round"/>
<path d="M302.75 73.1593C302.75 73.1593 305.012 73.2048 306.14 71.165" stroke="#003A47" stroke-width="1.0995" stroke-linecap="round" stroke-linejoin="round"/>
<path d="M294.899 61.6651C295.186 61.6651 295.418 61.2646 295.418 60.7705C295.418 60.2765 295.186 59.876 294.899 59.876C294.613 59.876 294.381 60.2765 294.381 60.7705C294.381 61.2646 294.613 61.6651 294.899 61.6651Z" fill="#003A47"/>
<path d="M304.88 61.6651C305.166 61.6651 305.398 61.2646 305.398 60.7705C305.398 60.2765 305.166 59.876 304.88 59.876C304.593 59.876 304.361 60.2765 304.361 60.7705C304.361 61.2646 304.593 61.6651 304.88 61.6651Z" fill="#003A47"/>
<path d="M322.183 64.0488L319.57 65.3166" stroke="#003A47" stroke-width="1.0995" stroke-linecap="round" stroke-linejoin="round"/>
<path d="M320.935 69.7348C320.028 69.7831 319.126 69.5863 318.322 69.165L320.915 72.8116L320.935 69.7348Z" fill="#003A47" stroke="#003A47" stroke-width="1.0995" stroke-linejoin="round"/>
<path d="M295.596 55.5809C296.935 55.2348 297.878 54.4035 297.702 53.7241C297.527 53.0447 296.299 52.7745 294.96 53.1205C293.621 53.4665 292.677 54.2978 292.853 54.9773C293.029 55.6567 294.256 55.9269 295.596 55.5809Z" fill="#94424F" stroke="#003A47" stroke-width="1.0995" stroke-linejoin="round"/>
<path d="M309.875 55.5035C310.095 54.8369 309.145 53.9254 307.753 53.4677C306.362 53.0099 305.056 53.1792 304.837 53.8458C304.617 54.5124 305.567 55.4238 306.959 55.8816C308.35 56.3393 309.656 56.1701 309.875 55.5035Z" fill="#94424F" stroke="#003A47" stroke-width="1.0995" stroke-linejoin="round"/>
<path d="M170.374 334.168L163.674 401.669H172.144C172.79 399.048 174.043 396.615 175.802 394.567C177.561 392.518 179.777 390.912 182.271 389.878C190.69 372.24 196.509 353.475 199.547 334.168H170.374Z" fill="#FFC4C8" stroke="#003A47" stroke-width="1.0995" stroke-miterlimit="10"/>
<path d="M182.84 409.376H180.535L179.769 403.499C179.741 403.293 179.649 403.1 179.506 402.948C179.363 402.797 179.176 402.694 178.971 402.655C178.766 402.615 178.554 402.641 178.365 402.729C178.176 402.817 178.019 402.961 177.917 403.143L175.307 407.773C175.035 408.258 174.637 408.662 174.157 408.943C173.676 409.224 173.129 409.371 172.572 409.371H152.061V406.704L163.67 401.662H172.137C172.782 399.04 174.035 396.606 175.795 394.559C177.555 392.511 179.772 390.906 182.267 389.873C183.401 391.659 184.226 393.622 184.709 395.682C186.207 402.126 183.797 407.488 182.84 409.376Z" fill="#FF7A00" stroke="#003A47" stroke-width="1.0995" stroke-linejoin="round"/>
<path d="M249.279 389.878C251.815 379.487 253.718 368.951 254.977 358.329C255.997 349.731 256.242 341.643 256.439 334.168H227.557C229.363 346.088 230.839 358.973 231.75 372.73C232.423 382.838 232.727 392.502 232.762 401.669H242.653C243.749 397.211 246.04 393.135 249.279 389.881V389.878Z" fill="#FFC4C8" stroke="#003A47" stroke-width="1.0995" stroke-miterlimit="10"/>
<path d="M249.279 389.879C250.362 391.383 251.912 392.822 252.661 396.352C253.832 401.89 252.316 407.536 251.575 409.377H249.271L249.177 403.494C248.892 402.548 247.581 402.303 247.262 403.138L245.473 407.778C245.279 408.266 244.94 408.681 244.5 408.967C244.061 409.253 243.544 409.396 243.02 409.377H225.072V406.778L232.764 401.668H242.656C243.752 397.209 246.043 393.133 249.282 389.879H249.279Z" fill="#FF7A00" stroke="#003A47" stroke-width="1.0995" stroke-linejoin="round"/>
<path d="M231.398 100.498L236.81 101.874C239.094 102.455 241.218 103.542 243.025 105.054C244.832 106.565 246.276 108.464 247.252 110.609C250.069 116.802 252.12 125.748 253.149 136.787C254.596 152.291 253.904 168.883 247.061 172.649C247.117 170.647 246.598 168.671 245.567 166.955C244.535 165.238 243.034 163.853 241.24 162.963C236.377 160.618 231.751 163.27 231.395 163.484C230.844 162.276 230.293 161.069 229.742 159.863C223.455 160.359 216.637 160.641 209.37 160.575C203.641 160.527 198.211 160.265 193.114 159.863C193.057 172.227 189.442 180.358 179.576 181.033C166.454 181.93 163.073 170.156 163.452 159.863C164.17 140.491 169.315 124.588 172.722 116.033C173.563 113.915 174.825 111.99 176.431 110.374C178.038 108.758 179.956 107.485 182.069 106.632L188.906 103.874L231.398 100.498Z" fill="white" stroke="#003A47" stroke-width="1.0995" stroke-linejoin="round"/>
<path d="M166.681 153.225C167.074 153.225 167.393 152.906 167.393 152.513C167.393 152.12 167.074 151.801 166.681 151.801C166.288 151.801 165.969 152.12 165.969 152.513C165.969 152.906 166.288 153.225 166.681 153.225Z" fill="#F2D300"/>
<path d="M172.663 153.225C173.057 153.225 173.376 152.906 173.376 152.513C173.376 152.12 173.057 151.801 172.663 151.801C172.27 151.801 171.951 152.12 171.951 152.513C171.951 152.906 172.27 153.225 172.663 153.225Z" fill="#F2D300"/>
<path d="M178.646 153.225C179.039 153.225 179.358 152.906 179.358 152.513C179.358 152.12 179.039 151.801 178.646 151.801C178.252 151.801 177.934 152.12 177.934 152.513C177.934 152.906 178.252 153.225 178.646 153.225Z" fill="#F2D300"/>
<path d="M184.63 153.225C185.024 153.225 185.342 152.906 185.342 152.513C185.342 152.12 185.024 151.801 184.63 151.801C184.237 151.801 183.918 152.12 183.918 152.513C183.918 152.906 184.237 153.225 184.63 153.225Z" fill="#F2D300"/>
<path d="M190.613 153.225C191.006 153.225 191.325 152.906 191.325 152.513C191.325 152.12 191.006 151.801 190.613 151.801C190.219 151.801 189.9 152.12 189.9 152.513C189.9 152.906 190.219 153.225 190.613 153.225Z" fill="#F2D300"/>
<path d="M196.593 153.225C196.986 153.225 197.305 152.906 197.305 152.513C197.305 152.12 196.986 151.801 196.593 151.801C196.2 151.801 195.881 152.12 195.881 152.513C195.881 152.906 196.2 153.225 196.593 153.225Z" fill="#F2D300"/>
<path d="M202.577 153.225C202.971 153.225 203.29 152.906 203.29 152.513C203.29 152.12 202.971 151.801 202.577 151.801C202.184 151.801 201.865 152.12 201.865 152.513C201.865 152.906 202.184 153.225 202.577 153.225Z" fill="#F2D300"/>
<path d="M208.56 153.225C208.953 153.225 209.272 152.906 209.272 152.513C209.272 152.12 208.953 151.801 208.56 151.801C208.167 151.801 207.848 152.12 207.848 152.513C207.848 152.906 208.167 153.225 208.56 153.225Z" fill="#F2D300"/>
<path d="M214.542 153.225C214.936 153.225 215.255 152.906 215.255 152.513C215.255 152.12 214.936 151.801 214.542 151.801C214.149 151.801 213.83 152.12 213.83 152.513C213.83 152.906 214.149 153.225 214.542 153.225Z" fill="#F2D300"/>
<path d="M220.527 153.225C220.92 153.225 221.239 152.906 221.239 152.513C221.239 152.12 220.92 151.801 220.527 151.801C220.133 151.801 219.814 152.12 219.814 152.513C219.814 152.906 220.133 153.225 220.527 153.225Z" fill="#F2D300"/>
<path d="M226.507 153.225C226.9 153.225 227.219 152.906 227.219 152.513C227.219 152.12 226.9 151.801 226.507 151.801C226.114 151.801 225.795 152.12 225.795 152.513C225.795 152.906 226.114 153.225 226.507 153.225Z" fill="#F2D300"/>
<path d="M232.49 153.225C232.883 153.225 233.202 152.906 233.202 152.513C233.202 152.12 232.883 151.801 232.49 151.801C232.096 151.801 231.777 152.12 231.777 152.513C231.777 152.906 232.096 153.225 232.49 153.225Z" fill="#F2D300"/>
<path d="M238.474 153.225C238.867 153.225 239.186 152.906 239.186 152.513C239.186 152.12 238.867 151.801 238.474 151.801C238.081 151.801 237.762 152.12 237.762 152.513C237.762 152.906 238.081 153.225 238.474 153.225Z" fill="#F2D300"/>
<path d="M244.456 153.225C244.85 153.225 245.169 152.906 245.169 152.513C245.169 152.12 244.85 151.801 244.456 151.801C244.063 151.801 243.744 152.12 243.744 152.513C243.744 152.906 244.063 153.225 244.456 153.225Z" fill="#F2D300"/>
<path d="M250.439 153.225C250.832 153.225 251.151 152.906 251.151 152.513C251.151 152.12 250.832 151.801 250.439 151.801C250.045 151.801 249.727 152.12 249.727 152.513C249.727 152.906 250.045 153.225 250.439 153.225Z" fill="#F2D300"/>
<path d="M169.816 157.256C170.209 157.256 170.528 156.938 170.528 156.544C170.528 156.151 170.209 155.832 169.816 155.832C169.422 155.832 169.104 156.151 169.104 156.544C169.104 156.938 169.422 157.256 169.816 157.256Z" fill="#F2D300"/>
<path d="M175.798 157.256C176.192 157.256 176.51 156.938 176.51 156.544C176.51 156.151 176.192 155.832 175.798 155.832C175.405 155.832 175.086 156.151 175.086 156.544C175.086 156.938 175.405 157.256 175.798 157.256Z" fill="#F2D300"/>
<path d="M181.779 157.256C182.172 157.256 182.491 156.938 182.491 156.544C182.491 156.151 182.172 155.832 181.779 155.832C181.385 155.832 181.066 156.151 181.066 156.544C181.066 156.938 181.385 157.256 181.779 157.256Z" fill="#F2D300"/>
<path d="M187.763 157.256C188.156 157.256 188.475 156.938 188.475 156.544C188.475 156.151 188.156 155.832 187.763 155.832C187.37 155.832 187.051 156.151 187.051 156.544C187.051 156.938 187.37 157.256 187.763 157.256Z" fill="#F2D300"/>
<path d="M193.745 157.256C194.139 157.256 194.458 156.938 194.458 156.544C194.458 156.151 194.139 155.832 193.745 155.832C193.352 155.832 193.033 156.151 193.033 156.544C193.033 156.938 193.352 157.256 193.745 157.256Z" fill="#F2D300"/>
<path d="M199.728 157.256C200.121 157.256 200.44 156.938 200.44 156.544C200.44 156.151 200.121 155.832 199.728 155.832C199.334 155.832 199.016 156.151 199.016 156.544C199.016 156.938 199.334 157.256 199.728 157.256Z" fill="#F2D300"/>
<path d="M205.712 157.256C206.106 157.256 206.424 156.938 206.424 156.544C206.424 156.151 206.106 155.832 205.712 155.832C205.319 155.832 205 156.151 205 156.544C205 156.938 205.319 157.256 205.712 157.256Z" fill="#F2D300"/>
<path d="M211.693 157.256C212.086 157.256 212.405 156.938 212.405 156.544C212.405 156.151 212.086 155.832 211.693 155.832C211.299 155.832 210.98 156.151 210.98 156.544C210.98 156.938 211.299 157.256 211.693 157.256Z" fill="#F2D300"/>
<path d="M217.675 157.256C218.068 157.256 218.387 156.938 218.387 156.544C218.387 156.151 218.068 155.832 217.675 155.832C217.282 155.832 216.963 156.151 216.963 156.544C216.963 156.938 217.282 157.256 217.675 157.256Z" fill="#F2D300"/>
<path d="M223.659 157.256C224.053 157.256 224.372 156.938 224.372 156.544C224.372 156.151 224.053 155.832 223.659 155.832C223.266 155.832 222.947 156.151 222.947 156.544C222.947 156.938 223.266 157.256 223.659 157.256Z" fill="#F2D300"/>
<path d="M229.642 157.256C230.035 157.256 230.354 156.938 230.354 156.544C230.354 156.151 230.035 155.832 229.642 155.832C229.249 155.832 228.93 156.151 228.93 156.544C228.93 156.938 229.249 157.256 229.642 157.256Z" fill="#F2D300"/>
<path d="M235.624 157.256C236.018 157.256 236.337 156.938 236.337 156.544C236.337 156.151 236.018 155.832 235.624 155.832C235.231 155.832 234.912 156.151 234.912 156.544C234.912 156.938 235.231 157.256 235.624 157.256Z" fill="#F2D300"/>
<path d="M241.607 157.256C242 157.256 242.319 156.938 242.319 156.544C242.319 156.151 242 155.832 241.607 155.832C241.213 155.832 240.895 156.151 240.895 156.544C240.895 156.938 241.213 157.256 241.607 157.256Z" fill="#F2D300"/>
<path d="M247.589 157.256C247.983 157.256 248.301 156.938 248.301 156.544C248.301 156.151 247.983 155.832 247.589 155.832C247.196 155.832 246.877 156.151 246.877 156.544C246.877 156.938 247.196 157.256 247.589 157.256Z" fill="#F2D300"/>
<path d="M166.681 161.529C167.074 161.529 167.393 161.21 167.393 160.817C167.393 160.423 167.074 160.104 166.681 160.104C166.288 160.104 165.969 160.423 165.969 160.817C165.969 161.21 166.288 161.529 166.681 161.529Z" fill="#F2D300"/>
<path d="M166.681 170.362C167.074 170.362 167.393 170.043 167.393 169.65C167.393 169.256 167.074 168.938 166.681 168.938C166.288 168.938 165.969 169.256 165.969 169.65C165.969 170.043 166.288 170.362 166.681 170.362Z" fill="#F2D300"/>
<path d="M172.663 170.362C173.057 170.362 173.376 170.043 173.376 169.65C173.376 169.256 173.057 168.938 172.663 168.938C172.27 168.938 171.951 169.256 171.951 169.65C171.951 170.043 172.27 170.362 172.663 170.362Z" fill="#F2D300"/>
<path d="M178.646 170.362C179.039 170.362 179.358 170.043 179.358 169.65C179.358 169.256 179.039 168.938 178.646 168.938C178.252 168.938 177.934 169.256 177.934 169.65C177.934 170.043 178.252 170.362 178.646 170.362Z" fill="#F2D300"/>
<path d="M184.63 170.362C185.024 170.362 185.342 170.043 185.342 169.65C185.342 169.256 185.024 168.938 184.63 168.938C184.237 168.938 183.918 169.256 183.918 169.65C183.918 170.043 184.237 170.362 184.63 170.362Z" fill="#F2D300"/>
<path d="M190.613 170.362C191.006 170.362 191.325 170.043 191.325 169.65C191.325 169.256 191.006 168.938 190.613 168.938C190.219 168.938 189.9 169.256 189.9 169.65C189.9 170.043 190.219 170.362 190.613 170.362Z" fill="#F2D300"/>
<path d="M187.763 175.49C188.156 175.49 188.475 175.171 188.475 174.778C188.475 174.384 188.156 174.065 187.763 174.065C187.37 174.065 187.051 174.384 187.051 174.778C187.051 175.171 187.37 175.49 187.763 175.49Z" fill="#F2D300"/>
<path d="M181.779 175.49C182.172 175.49 182.491 175.171 182.491 174.778C182.491 174.384 182.172 174.065 181.779 174.065C181.385 174.065 181.066 174.384 181.066 174.778C181.066 175.171 181.385 175.49 181.779 175.49Z" fill="#F2D300"/>
<path d="M175.798 175.49C176.192 175.49 176.51 175.171 176.51 174.778C176.51 174.384 176.192 174.065 175.798 174.065C175.405 174.065 175.086 174.384 175.086 174.778C175.086 175.171 175.405 175.49 175.798 175.49Z" fill="#F2D300"/>
<path d="M169.816 175.49C170.209 175.49 170.528 175.171 170.528 174.778C170.528 174.384 170.209 174.065 169.816 174.065C169.422 174.065 169.104 174.384 169.104 174.778C169.104 175.171 169.422 175.49 169.816 175.49Z" fill="#F2D300"/>
<path d="M172.663 161.529C173.057 161.529 173.376 161.21 173.376 160.817C173.376 160.423 173.057 160.104 172.663 160.104C172.27 160.104 171.951 160.423 171.951 160.817C171.951 161.21 172.27 161.529 172.663 161.529Z" fill="#F2D300"/>
<path d="M178.646 161.529C179.039 161.529 179.358 161.21 179.358 160.817C179.358 160.423 179.039 160.104 178.646 160.104C178.252 160.104 177.934 160.423 177.934 160.817C177.934 161.21 178.252 161.529 178.646 161.529Z" fill="#F2D300"/>
<path d="M184.63 161.529C185.024 161.529 185.342 161.21 185.342 160.817C185.342 160.423 185.024 160.104 184.63 160.104C184.237 160.104 183.918 160.423 183.918 160.817C183.918 161.21 184.237 161.529 184.63 161.529Z" fill="#F2D300"/>
<path d="M190.613 161.529C191.006 161.529 191.325 161.21 191.325 160.817C191.325 160.423 191.006 160.104 190.613 160.104C190.219 160.104 189.9 160.423 189.9 160.817C189.9 161.21 190.219 161.529 190.613 161.529Z" fill="#F2D300"/>
<path d="M232.49 161.529C232.883 161.529 233.202 161.21 233.202 160.817C233.202 160.423 232.883 160.104 232.49 160.104C232.096 160.104 231.777 160.423 231.777 160.817C231.777 161.21 232.096 161.529 232.49 161.529Z" fill="#F2D300"/>
<path d="M238.474 161.529C238.867 161.529 239.186 161.21 239.186 160.817C239.186 160.423 238.867 160.104 238.474 160.104C238.081 160.104 237.762 160.423 237.762 160.817C237.762 161.21 238.081 161.529 238.474 161.529Z" fill="#F2D300"/>
<path d="M244.456 161.529C244.85 161.529 245.169 161.21 245.169 160.817C245.169 160.423 244.85 160.104 244.456 160.104C244.063 160.104 243.744 160.423 243.744 160.817C243.744 161.21 244.063 161.529 244.456 161.529Z" fill="#F2D300"/>
<path d="M250.439 161.529C250.832 161.529 251.151 161.21 251.151 160.817C251.151 160.423 250.832 160.104 250.439 160.104C250.045 160.104 249.727 160.423 249.727 160.817C249.727 161.21 250.045 161.529 250.439 161.529Z" fill="#F2D300"/>
<path d="M169.816 165.518C170.209 165.518 170.528 165.199 170.528 164.806C170.528 164.413 170.209 164.094 169.816 164.094C169.422 164.094 169.104 164.413 169.104 164.806C169.104 165.199 169.422 165.518 169.816 165.518Z" fill="#F2D300"/>
<path d="M175.798 165.518C176.192 165.518 176.51 165.199 176.51 164.806C176.51 164.413 176.192 164.094 175.798 164.094C175.405 164.094 175.086 164.413 175.086 164.806C175.086 165.199 175.405 165.518 175.798 165.518Z" fill="#F2D300"/>
<path d="M181.779 165.518C182.172 165.518 182.491 165.199 182.491 164.806C182.491 164.413 182.172 164.094 181.779 164.094C181.385 164.094 181.066 164.413 181.066 164.806C181.066 165.199 181.385 165.518 181.779 165.518Z" fill="#F2D300"/>
<path d="M187.763 165.518C188.156 165.518 188.475 165.199 188.475 164.806C188.475 164.413 188.156 164.094 187.763 164.094C187.37 164.094 187.051 164.413 187.051 164.806C187.051 165.199 187.37 165.518 187.763 165.518Z" fill="#F2D300"/>
<path d="M247.589 165.518C247.983 165.518 248.301 165.199 248.301 164.806C248.301 164.413 247.983 164.094 247.589 164.094C247.196 164.094 246.877 164.413 246.877 164.806C246.877 165.199 247.196 165.518 247.589 165.518Z" fill="#F2D300"/>
<path d="M166.681 145.16C167.074 145.16 167.393 144.841 167.393 144.448C167.393 144.054 167.074 143.735 166.681 143.735C166.288 143.735 165.969 144.054 165.969 144.448C165.969 144.841 166.288 145.16 166.681 145.16Z" fill="#F2D300"/>
<path d="M172.663 145.16C173.057 145.16 173.376 144.841 173.376 144.448C173.376 144.054 173.057 143.735 172.663 143.735C172.27 143.735 171.951 144.054 171.951 144.448C171.951 144.841 172.27 145.16 172.663 145.16Z" fill="#F2D300"/>
<path d="M178.646 145.16C179.039 145.16 179.358 144.841 179.358 144.448C179.358 144.054 179.039 143.735 178.646 143.735C178.252 143.735 177.934 144.054 177.934 144.448C177.934 144.841 178.252 145.16 178.646 145.16Z" fill="#F2D300"/>
<path d="M184.63 145.16C185.024 145.16 185.342 144.841 185.342 144.448C185.342 144.054 185.024 143.735 184.63 143.735C184.237 143.735 183.918 144.054 183.918 144.448C183.918 144.841 184.237 145.16 184.63 145.16Z" fill="#F2D300"/>
<path d="M190.613 145.16C191.006 145.16 191.325 144.841 191.325 144.448C191.325 144.054 191.006 143.735 190.613 143.735C190.219 143.735 189.9 144.054 189.9 144.448C189.9 144.841 190.219 145.16 190.613 145.16Z" fill="#F2D300"/>
<path d="M196.593 145.16C196.986 145.16 197.305 144.841 197.305 144.448C197.305 144.054 196.986 143.735 196.593 143.735C196.2 143.735 195.881 144.054 195.881 144.448C195.881 144.841 196.2 145.16 196.593 145.16Z" fill="#F2D300"/>
<path d="M202.577 145.16C202.971 145.16 203.29 144.841 203.29 144.448C203.29 144.054 202.971 143.735 202.577 143.735C202.184 143.735 201.865 144.054 201.865 144.448C201.865 144.841 202.184 145.16 202.577 145.16Z" fill="#F2D300"/>
<path d="M208.56 145.16C208.953 145.16 209.272 144.841 209.272 144.448C209.272 144.054 208.953 143.735 208.56 143.735C208.167 143.735 207.848 144.054 207.848 144.448C207.848 144.841 208.167 145.16 208.56 145.16Z" fill="#F2D300"/>
<path d="M214.542 145.16C214.936 145.16 215.255 144.841 215.255 144.448C215.255 144.054 214.936 143.735 214.542 143.735C214.149 143.735 213.83 144.054 213.83 144.448C213.83 144.841 214.149 145.16 214.542 145.16Z" fill="#F2D300"/>
<path d="M220.527 145.16C220.92 145.16 221.239 144.841 221.239 144.448C221.239 144.054 220.92 143.735 220.527 143.735C220.133 143.735 219.814 144.054 219.814 144.448C219.814 144.841 220.133 145.16 220.527 145.16Z" fill="#F2D300"/>
<path d="M226.507 145.16C226.9 145.16 227.219 144.841 227.219 144.448C227.219 144.054 226.9 143.735 226.507 143.735C226.114 143.735 225.795 144.054 225.795 144.448C225.795 144.841 226.114 145.16 226.507 145.16Z" fill="#F2D300"/>
<path d="M232.49 145.16C232.883 145.16 233.202 144.841 233.202 144.448C233.202 144.054 232.883 143.735 232.49 143.735C232.096 143.735 231.777 144.054 231.777 144.448C231.777 144.841 232.096 145.16 232.49 145.16Z" fill="#F2D300"/>
<path d="M238.474 145.16C238.867 145.16 239.186 144.841 239.186 144.448C239.186 144.054 238.867 143.735 238.474 143.735C238.081 143.735 237.762 144.054 237.762 144.448C237.762 144.841 238.081 145.16 238.474 145.16Z" fill="#F2D300"/>
<path d="M244.456 145.16C244.85 145.16 245.169 144.841 245.169 144.448C245.169 144.054 244.85 143.735 244.456 143.735C244.063 143.735 243.744 144.054 243.744 144.448C243.744 144.841 244.063 145.16 244.456 145.16Z" fill="#F2D300"/>
<path d="M250.439 145.16C250.832 145.16 251.151 144.841 251.151 144.448C251.151 144.054 250.832 143.735 250.439 143.735C250.045 143.735 249.727 144.054 249.727 144.448C249.727 144.841 250.045 145.16 250.439 145.16Z" fill="#F2D300"/>
<path d="M169.816 149.191C170.209 149.191 170.528 148.872 170.528 148.479C170.528 148.085 170.209 147.767 169.816 147.767C169.422 147.767 169.104 148.085 169.104 148.479C169.104 148.872 169.422 149.191 169.816 149.191Z" fill="#F2D300"/>
<path d="M175.798 149.191C176.192 149.191 176.51 148.872 176.51 148.479C176.51 148.085 176.192 147.767 175.798 147.767C175.405 147.767 175.086 148.085 175.086 148.479C175.086 148.872 175.405 149.191 175.798 149.191Z" fill="#F2D300"/>
<path d="M181.779 149.191C182.172 149.191 182.491 148.872 182.491 148.479C182.491 148.085 182.172 147.767 181.779 147.767C181.385 147.767 181.066 148.085 181.066 148.479C181.066 148.872 181.385 149.191 181.779 149.191Z" fill="#F2D300"/>
<path d="M187.763 149.191C188.156 149.191 188.475 148.872 188.475 148.479C188.475 148.085 188.156 147.767 187.763 147.767C187.37 147.767 187.051 148.085 187.051 148.479C187.051 148.872 187.37 149.191 187.763 149.191Z" fill="#F2D300"/>
<path d="M193.745 149.191C194.139 149.191 194.458 148.872 194.458 148.479C194.458 148.085 194.139 147.767 193.745 147.767C193.352 147.767 193.033 148.085 193.033 148.479C193.033 148.872 193.352 149.191 193.745 149.191Z" fill="#F2D300"/>
<path d="M199.728 149.191C200.121 149.191 200.44 148.872 200.44 148.479C200.44 148.085 200.121 147.767 199.728 147.767C199.334 147.767 199.016 148.085 199.016 148.479C199.016 148.872 199.334 149.191 199.728 149.191Z" fill="#F2D300"/>
<path d="M205.712 149.191C206.106 149.191 206.424 148.872 206.424 148.479C206.424 148.085 206.106 147.767 205.712 147.767C205.319 147.767 205 148.085 205 148.479C205 148.872 205.319 149.191 205.712 149.191Z" fill="#F2D300"/>
<path d="M211.693 149.191C212.086 149.191 212.405 148.872 212.405 148.479C212.405 148.085 212.086 147.767 211.693 147.767C211.299 147.767 210.98 148.085 210.98 148.479C210.98 148.872 211.299 149.191 211.693 149.191Z" fill="#F2D300"/>
<path d="M217.675 149.191C218.068 149.191 218.387 148.872 218.387 148.479C218.387 148.085 218.068 147.767 217.675 147.767C217.282 147.767 216.963 148.085 216.963 148.479C216.963 148.872 217.282 149.191 217.675 149.191Z" fill="#F2D300"/>
<path d="M223.659 149.191C224.053 149.191 224.372 148.872 224.372 148.479C224.372 148.085 224.053 147.767 223.659 147.767C223.266 147.767 222.947 148.085 222.947 148.479C222.947 148.872 223.266 149.191 223.659 149.191Z" fill="#F2D300"/>
<path d="M229.642 149.191C230.035 149.191 230.354 148.872 230.354 148.479C230.354 148.085 230.035 147.767 229.642 147.767C229.249 147.767 228.93 148.085 228.93 148.479C228.93 148.872 229.249 149.191 229.642 149.191Z" fill="#F2D300"/>
<path d="M235.624 149.191C236.018 149.191 236.337 148.872 236.337 148.479C236.337 148.085 236.018 147.767 235.624 147.767C235.231 147.767 234.912 148.085 234.912 148.479C234.912 148.872 235.231 149.191 235.624 149.191Z" fill="#F2D300"/>
<path d="M241.607 149.191C242 149.191 242.319 148.872 242.319 148.479C242.319 148.085 242 147.767 241.607 147.767C241.213 147.767 240.895 148.085 240.895 148.479C240.895 148.872 241.213 149.191 241.607 149.191Z" fill="#F2D300"/>
<path d="M247.589 149.191C247.983 149.191 248.301 148.872 248.301 148.479C248.301 148.085 247.983 147.767 247.589 147.767C247.196 147.767 246.877 148.085 246.877 148.479C246.877 148.872 247.196 149.191 247.589 149.191Z" fill="#F2D300"/>
<path d="M172.663 137.094C173.057 137.094 173.376 136.775 173.376 136.382C173.376 135.989 173.057 135.67 172.663 135.67C172.27 135.67 171.951 135.989 171.951 136.382C171.951 136.775 172.27 137.094 172.663 137.094Z" fill="#F2D300"/>
<path d="M178.646 137.094C179.039 137.094 179.358 136.775 179.358 136.382C179.358 135.989 179.039 135.67 178.646 135.67C178.252 135.67 177.934 135.989 177.934 136.382C177.934 136.775 178.252 137.094 178.646 137.094Z" fill="#F2D300"/>
<path d="M184.63 137.094C185.024 137.094 185.342 136.775 185.342 136.382C185.342 135.989 185.024 135.67 184.63 135.67C184.237 135.67 183.918 135.989 183.918 136.382C183.918 136.775 184.237 137.094 184.63 137.094Z" fill="#F2D300"/>
<path d="M190.613 137.094C191.006 137.094 191.325 136.775 191.325 136.382C191.325 135.989 191.006 135.67 190.613 135.67C190.219 135.67 189.9 135.989 189.9 136.382C189.9 136.775 190.219 137.094 190.613 137.094Z" fill="#F2D300"/>
<path d="M196.593 137.094C196.986 137.094 197.305 136.775 197.305 136.382C197.305 135.989 196.986 135.67 196.593 135.67C196.2 135.67 195.881 135.989 195.881 136.382C195.881 136.775 196.2 137.094 196.593 137.094Z" fill="#F2D300"/>
<path d="M202.577 137.094C202.971 137.094 203.29 136.775 203.29 136.382C203.29 135.989 202.971 135.67 202.577 135.67C202.184 135.67 201.865 135.989 201.865 136.382C201.865 136.775 202.184 137.094 202.577 137.094Z" fill="#F2D300"/>
<path d="M208.56 137.094C208.953 137.094 209.272 136.775 209.272 136.382C209.272 135.989 208.953 135.67 208.56 135.67C208.167 135.67 207.848 135.989 207.848 136.382C207.848 136.775 208.167 137.094 208.56 137.094Z" fill="#F2D300"/>
<path d="M214.542 137.094C214.936 137.094 215.255 136.775 215.255 136.382C215.255 135.989 214.936 135.67 214.542 135.67C214.149 135.67 213.83 135.989 213.83 136.382C213.83 136.775 214.149 137.094 214.542 137.094Z" fill="#F2D300"/>
<path d="M220.527 137.094C220.92 137.094 221.239 136.775 221.239 136.382C221.239 135.989 220.92 135.67 220.527 135.67C220.133 135.67 219.814 135.989 219.814 136.382C219.814 136.775 220.133 137.094 220.527 137.094Z" fill="#F2D300"/>
<path d="M226.507 137.094C226.9 137.094 227.219 136.775 227.219 136.382C227.219 135.989 226.9 135.67 226.507 135.67C226.114 135.67 225.795 135.989 225.795 136.382C225.795 136.775 226.114 137.094 226.507 137.094Z" fill="#F2D300"/>
<path d="M232.49 137.094C232.883 137.094 233.202 136.775 233.202 136.382C233.202 135.989 232.883 135.67 232.49 135.67C232.096 135.67 231.777 135.989 231.777 136.382C231.777 136.775 232.096 137.094 232.49 137.094Z" fill="#F2D300"/>
<path d="M238.474 137.094C238.867 137.094 239.186 136.775 239.186 136.382C239.186 135.989 238.867 135.67 238.474 135.67C238.081 135.67 237.762 135.989 237.762 136.382C237.762 136.775 238.081 137.094 238.474 137.094Z" fill="#F2D300"/>
<path d="M244.456 137.094C244.85 137.094 245.169 136.775 245.169 136.382C245.169 135.989 244.85 135.67 244.456 135.67C244.063 135.67 243.744 135.989 243.744 136.382C243.744 136.775 244.063 137.094 244.456 137.094Z" fill="#F2D300"/>
<path d="M250.439 137.094C250.832 137.094 251.151 136.775 251.151 136.382C251.151 135.989 250.832 135.67 250.439 135.67C250.045 135.67 249.727 135.989 249.727 136.382C249.727 136.775 250.045 137.094 250.439 137.094Z" fill="#F2D300"/>
<path d="M169.816 141.129C170.209 141.129 170.528 140.81 170.528 140.416C170.528 140.023 170.209 139.704 169.816 139.704C169.422 139.704 169.104 140.023 169.104 140.416C169.104 140.81 169.422 141.129 169.816 141.129Z" fill="#F2D300"/>
<path d="M175.798 141.129C176.192 141.129 176.51 140.81 176.51 140.416C176.51 140.023 176.192 139.704 175.798 139.704C175.405 139.704 175.086 140.023 175.086 140.416C175.086 140.81 175.405 141.129 175.798 141.129Z" fill="#F2D300"/>
<path d="M181.779 141.129C182.172 141.129 182.491 140.81 182.491 140.416C182.491 140.023 182.172 139.704 181.779 139.704C181.385 139.704 181.066 140.023 181.066 140.416C181.066 140.81 181.385 141.129 181.779 141.129Z" fill="#F2D300"/>
<path d="M187.763 141.129C188.156 141.129 188.475 140.81 188.475 140.416C188.475 140.023 188.156 139.704 187.763 139.704C187.37 139.704 187.051 140.023 187.051 140.416C187.051 140.81 187.37 141.129 187.763 141.129Z" fill="#F2D300"/>
<path d="M193.745 141.129C194.139 141.129 194.458 140.81 194.458 140.416C194.458 140.023 194.139 139.704 193.745 139.704C193.352 139.704 193.033 140.023 193.033 140.416C193.033 140.81 193.352 141.129 193.745 141.129Z" fill="#F2D300"/>
<path d="M199.728 141.129C200.121 141.129 200.44 140.81 200.44 140.416C200.44 140.023 200.121 139.704 199.728 139.704C199.334 139.704 199.016 140.023 199.016 140.416C199.016 140.81 199.334 141.129 199.728 141.129Z" fill="#F2D300"/>
<path d="M205.712 141.129C206.106 141.129 206.424 140.81 206.424 140.416C206.424 140.023 206.106 139.704 205.712 139.704C205.319 139.704 205 140.023 205 140.416C205 140.81 205.319 141.129 205.712 141.129Z" fill="#F2D300"/>
<path d="M211.693 141.129C212.086 141.129 212.405 140.81 212.405 140.416C212.405 140.023 212.086 139.704 211.693 139.704C211.299 139.704 210.98 140.023 210.98 140.416C210.98 140.81 211.299 141.129 211.693 141.129Z" fill="#F2D300"/>
<path d="M217.675 141.129C218.068 141.129 218.387 140.81 218.387 140.416C218.387 140.023 218.068 139.704 217.675 139.704C217.282 139.704 216.963 140.023 216.963 140.416C216.963 140.81 217.282 141.129 217.675 141.129Z" fill="#F2D300"/>
<path d="M223.659 141.129C224.053 141.129 224.372 140.81 224.372 140.416C224.372 140.023 224.053 139.704 223.659 139.704C223.266 139.704 222.947 140.023 222.947 140.416C222.947 140.81 223.266 141.129 223.659 141.129Z" fill="#F2D300"/>
<path d="M229.642 141.129C230.035 141.129 230.354 140.81 230.354 140.416C230.354 140.023 230.035 139.704 229.642 139.704C229.249 139.704 228.93 140.023 228.93 140.416C228.93 140.81 229.249 141.129 229.642 141.129Z" fill="#F2D300"/>
<path d="M235.624 141.129C236.018 141.129 236.337 140.81 236.337 140.416C236.337 140.023 236.018 139.704 235.624 139.704C235.231 139.704 234.912 140.023 234.912 140.416C234.912 140.81 235.231 141.129 235.624 141.129Z" fill="#F2D300"/>
<path d="M241.607 141.129C242 141.129 242.319 140.81 242.319 140.416C242.319 140.023 242 139.704 241.607 139.704C241.213 139.704 240.895 140.023 240.895 140.416C240.895 140.81 241.213 141.129 241.607 141.129Z" fill="#F2D300"/>
<path d="M247.589 141.129C247.983 141.129 248.301 140.81 248.301 140.416C248.301 140.023 247.983 139.704 247.589 139.704C247.196 139.704 246.877 140.023 246.877 140.416C246.877 140.81 247.196 141.129 247.589 141.129Z" fill="#F2D300"/>
<path d="M172.663 129.03C173.057 129.03 173.376 128.711 173.376 128.318C173.376 127.924 173.057 127.605 172.663 127.605C172.27 127.605 171.951 127.924 171.951 128.318C171.951 128.711 172.27 129.03 172.663 129.03Z" fill="#F2D300"/>
<path d="M178.646 129.03C179.039 129.03 179.358 128.711 179.358 128.318C179.358 127.924 179.039 127.605 178.646 127.605C178.252 127.605 177.934 127.924 177.934 128.318C177.934 128.711 178.252 129.03 178.646 129.03Z" fill="#F2D300"/>
<path d="M184.63 129.03C185.024 129.03 185.342 128.711 185.342 128.318C185.342 127.924 185.024 127.605 184.63 127.605C184.237 127.605 183.918 127.924 183.918 128.318C183.918 128.711 184.237 129.03 184.63 129.03Z" fill="#F2D300"/>
<path d="M190.613 129.03C191.006 129.03 191.325 128.711 191.325 128.318C191.325 127.924 191.006 127.605 190.613 127.605C190.219 127.605 189.9 127.924 189.9 128.318C189.9 128.711 190.219 129.03 190.613 129.03Z" fill="#F2D300"/>
<path d="M196.593 129.03C196.986 129.03 197.305 128.711 197.305 128.318C197.305 127.924 196.986 127.605 196.593 127.605C196.2 127.605 195.881 127.924 195.881 128.318C195.881 128.711 196.2 129.03 196.593 129.03Z" fill="#F2D300"/>
<path d="M202.577 129.03C202.971 129.03 203.29 128.711 203.29 128.318C203.29 127.924 202.971 127.605 202.577 127.605C202.184 127.605 201.865 127.924 201.865 128.318C201.865 128.711 202.184 129.03 202.577 129.03Z" fill="#F2D300"/>
<path d="M208.56 129.03C208.953 129.03 209.272 128.711 209.272 128.318C209.272 127.924 208.953 127.605 208.56 127.605C208.167 127.605 207.848 127.924 207.848 128.318C207.848 128.711 208.167 129.03 208.56 129.03Z" fill="#F2D300"/>
<path d="M214.542 129.03C214.936 129.03 215.255 128.711 215.255 128.318C215.255 127.924 214.936 127.605 214.542 127.605C214.149 127.605 213.83 127.924 213.83 128.318C213.83 128.711 214.149 129.03 214.542 129.03Z" fill="#F2D300"/>
<path d="M220.527 129.03C220.92 129.03 221.239 128.711 221.239 128.318C221.239 127.924 220.92 127.605 220.527 127.605C220.133 127.605 219.814 127.924 219.814 128.318C219.814 128.711 220.133 129.03 220.527 129.03Z" fill="#F2D300"/>
<path d="M226.507 129.03C226.9 129.03 227.219 128.711 227.219 128.318C227.219 127.924 226.9 127.605 226.507 127.605C226.114 127.605 225.795 127.924 225.795 128.318C225.795 128.711 226.114 129.03 226.507 129.03Z" fill="#F2D300"/>
<path d="M232.49 129.03C232.883 129.03 233.202 128.711 233.202 128.318C233.202 127.924 232.883 127.605 232.49 127.605C232.096 127.605 231.777 127.924 231.777 128.318C231.777 128.711 232.096 129.03 232.49 129.03Z" fill="#F2D300"/>
<path d="M238.474 129.03C238.867 129.03 239.186 128.711 239.186 128.318C239.186 127.924 238.867 127.605 238.474 127.605C238.081 127.605 237.762 127.924 237.762 128.318C237.762 128.711 238.081 129.03 238.474 129.03Z" fill="#F2D300"/>
<path d="M244.456 129.03C244.85 129.03 245.169 128.711 245.169 128.318C245.169 127.924 244.85 127.605 244.456 127.605C244.063 127.605 243.744 127.924 243.744 128.318C243.744 128.711 244.063 129.03 244.456 129.03Z" fill="#F2D300"/>
<path d="M250.439 129.03C250.832 129.03 251.151 128.711 251.151 128.318C251.151 127.924 250.832 127.605 250.439 127.605C250.045 127.605 249.727 127.924 249.727 128.318C249.727 128.711 250.045 129.03 250.439 129.03Z" fill="#F2D300"/>
<path d="M169.816 133.063C170.209 133.063 170.528 132.744 170.528 132.351C170.528 131.958 170.209 131.639 169.816 131.639C169.422 131.639 169.104 131.958 169.104 132.351C169.104 132.744 169.422 133.063 169.816 133.063Z" fill="#F2D300"/>
<path d="M175.798 133.063C176.192 133.063 176.51 132.744 176.51 132.351C176.51 131.958 176.192 131.639 175.798 131.639C175.405 131.639 175.086 131.958 175.086 132.351C175.086 132.744 175.405 133.063 175.798 133.063Z" fill="#F2D300"/>
<path d="M181.779 133.063C182.172 133.063 182.491 132.744 182.491 132.351C182.491 131.958 182.172 131.639 181.779 131.639C181.385 131.639 181.066 131.958 181.066 132.351C181.066 132.744 181.385 133.063 181.779 133.063Z" fill="#F2D300"/>
<path d="M187.763 133.063C188.156 133.063 188.475 132.744 188.475 132.351C188.475 131.958 188.156 131.639 187.763 131.639C187.37 131.639 187.051 131.958 187.051 132.351C187.051 132.744 187.37 133.063 187.763 133.063Z" fill="#F2D300"/>
<path d="M193.745 133.063C194.139 133.063 194.458 132.744 194.458 132.351C194.458 131.958 194.139 131.639 193.745 131.639C193.352 131.639 193.033 131.958 193.033 132.351C193.033 132.744 193.352 133.063 193.745 133.063Z" fill="#F2D300"/>
<path d="M199.728 133.063C200.121 133.063 200.44 132.744 200.44 132.351C200.44 131.958 200.121 131.639 199.728 131.639C199.334 131.639 199.016 131.958 199.016 132.351C199.016 132.744 199.334 133.063 199.728 133.063Z" fill="#F2D300"/>
<path d="M205.712 133.063C206.106 133.063 206.424 132.744 206.424 132.351C206.424 131.958 206.106 131.639 205.712 131.639C205.319 131.639 205 131.958 205 132.351C205 132.744 205.319 133.063 205.712 133.063Z" fill="#F2D300"/>
<path d="M211.693 133.063C212.086 133.063 212.405 132.744 212.405 132.351C212.405 131.958 212.086 131.639 211.693 131.639C211.299 131.639 210.98 131.958 210.98 132.351C210.98 132.744 211.299 133.063 211.693 133.063Z" fill="#F2D300"/>
<path d="M217.675 133.063C218.068 133.063 218.387 132.744 218.387 132.351C218.387 131.958 218.068 131.639 217.675 131.639C217.282 131.639 216.963 131.958 216.963 132.351C216.963 132.744 217.282 133.063 217.675 133.063Z" fill="#F2D300"/>
<path d="M223.659 133.063C224.053 133.063 224.372 132.744 224.372 132.351C224.372 131.958 224.053 131.639 223.659 131.639C223.266 131.639 222.947 131.958 222.947 132.351C222.947 132.744 223.266 133.063 223.659 133.063Z" fill="#F2D300"/>
<path d="M229.642 133.063C230.035 133.063 230.354 132.744 230.354 132.351C230.354 131.958 230.035 131.639 229.642 131.639C229.249 131.639 228.93 131.958 228.93 132.351C228.93 132.744 229.249 133.063 229.642 133.063Z" fill="#F2D300"/>
<path d="M235.624 133.063C236.018 133.063 236.337 132.744 236.337 132.351C236.337 131.958 236.018 131.639 235.624 131.639C235.231 131.639 234.912 131.958 234.912 132.351C234.912 132.744 235.231 133.063 235.624 133.063Z" fill="#F2D300"/>
<path d="M241.607 133.063C242 133.063 242.319 132.744 242.319 132.351C242.319 131.958 242 131.639 241.607 131.639C241.213 131.639 240.895 131.958 240.895 132.351C240.895 132.744 241.213 133.063 241.607 133.063Z" fill="#F2D300"/>
<path d="M247.589 133.063C247.983 133.063 248.301 132.744 248.301 132.351C248.301 131.958 247.983 131.639 247.589 131.639C247.196 131.639 246.877 131.958 246.877 132.351C246.877 132.744 247.196 133.063 247.589 133.063Z" fill="#F2D300"/>
<path d="M172.663 120.967C173.057 120.967 173.376 120.649 173.376 120.255C173.376 119.862 173.057 119.543 172.663 119.543C172.27 119.543 171.951 119.862 171.951 120.255C171.951 120.649 172.27 120.967 172.663 120.967Z" fill="#F2D300"/>
<path d="M178.646 120.967C179.039 120.967 179.358 120.649 179.358 120.255C179.358 119.862 179.039 119.543 178.646 119.543C178.252 119.543 177.934 119.862 177.934 120.255C177.934 120.649 178.252 120.967 178.646 120.967Z" fill="#F2D300"/>
<path d="M184.63 120.967C185.024 120.967 185.342 120.649 185.342 120.255C185.342 119.862 185.024 119.543 184.63 119.543C184.237 119.543 183.918 119.862 183.918 120.255C183.918 120.649 184.237 120.967 184.63 120.967Z" fill="#F2D300"/>
<path d="M190.613 120.967C191.006 120.967 191.325 120.649 191.325 120.255C191.325 119.862 191.006 119.543 190.613 119.543C190.219 119.543 189.9 119.862 189.9 120.255C189.9 120.649 190.219 120.967 190.613 120.967Z" fill="#F2D300"/>
<path d="M196.593 120.967C196.986 120.967 197.305 120.649 197.305 120.255C197.305 119.862 196.986 119.543 196.593 119.543C196.2 119.543 195.881 119.862 195.881 120.255C195.881 120.649 196.2 120.967 196.593 120.967Z" fill="#F2D300"/>
<path d="M202.577 120.967C202.971 120.967 203.29 120.649 203.29 120.255C203.29 119.862 202.971 119.543 202.577 119.543C202.184 119.543 201.865 119.862 201.865 120.255C201.865 120.649 202.184 120.967 202.577 120.967Z" fill="#F2D300"/>
<path d="M208.56 120.967C208.953 120.967 209.272 120.649 209.272 120.255C209.272 119.862 208.953 119.543 208.56 119.543C208.167 119.543 207.848 119.862 207.848 120.255C207.848 120.649 208.167 120.967 208.56 120.967Z" fill="#F2D300"/>
<path d="M214.542 120.967C214.936 120.967 215.255 120.649 215.255 120.255C215.255 119.862 214.936 119.543 214.542 119.543C214.149 119.543 213.83 119.862 213.83 120.255C213.83 120.649 214.149 120.967 214.542 120.967Z" fill="#F2D300"/>
<path d="M220.527 120.967C220.92 120.967 221.239 120.649 221.239 120.255C221.239 119.862 220.92 119.543 220.527 119.543C220.133 119.543 219.814 119.862 219.814 120.255C219.814 120.649 220.133 120.967 220.527 120.967Z" fill="#F2D300"/>
<path d="M226.507 120.967C226.9 120.967 227.219 120.649 227.219 120.255C227.219 119.862 226.9 119.543 226.507 119.543C226.114 119.543 225.795 119.862 225.795 120.255C225.795 120.649 226.114 120.967 226.507 120.967Z" fill="#F2D300"/>
<path d="M232.49 120.967C232.883 120.967 233.202 120.649 233.202 120.255C233.202 119.862 232.883 119.543 232.49 119.543C232.096 119.543 231.777 119.862 231.777 120.255C231.777 120.649 232.096 120.967 232.49 120.967Z" fill="#F2D300"/>
<path d="M238.474 120.967C238.867 120.967 239.186 120.649 239.186 120.255C239.186 119.862 238.867 119.543 238.474 119.543C238.081 119.543 237.762 119.862 237.762 120.255C237.762 120.649 238.081 120.967 238.474 120.967Z" fill="#F2D300"/>
<path d="M244.456 120.967C244.85 120.967 245.169 120.649 245.169 120.255C245.169 119.862 244.85 119.543 244.456 119.543C244.063 119.543 243.744 119.862 243.744 120.255C243.744 120.649 244.063 120.967 244.456 120.967Z" fill="#F2D300"/>
<path d="M175.798 124.998C176.192 124.998 176.51 124.679 176.51 124.285C176.51 123.892 176.192 123.573 175.798 123.573C175.405 123.573 175.086 123.892 175.086 124.285C175.086 124.679 175.405 124.998 175.798 124.998Z" fill="#F2D300"/>
<path d="M181.779 124.998C182.172 124.998 182.491 124.679 182.491 124.285C182.491 123.892 182.172 123.573 181.779 123.573C181.385 123.573 181.066 123.892 181.066 124.285C181.066 124.679 181.385 124.998 181.779 124.998Z" fill="#F2D300"/>
<path d="M187.763 124.998C188.156 124.998 188.475 124.679 188.475 124.285C188.475 123.892 188.156 123.573 187.763 123.573C187.37 123.573 187.051 123.892 187.051 124.285C187.051 124.679 187.37 124.998 187.763 124.998Z" fill="#F2D300"/>
<path d="M193.745 124.998C194.139 124.998 194.458 124.679 194.458 124.285C194.458 123.892 194.139 123.573 193.745 123.573C193.352 123.573 193.033 123.892 193.033 124.285C193.033 124.679 193.352 124.998 193.745 124.998Z" fill="#F2D300"/>
<path d="M199.728 124.998C200.121 124.998 200.44 124.679 200.44 124.285C200.44 123.892 200.121 123.573 199.728 123.573C199.334 123.573 199.016 123.892 199.016 124.285C199.016 124.679 199.334 124.998 199.728 124.998Z" fill="#F2D300"/>
<path d="M205.712 124.998C206.106 124.998 206.424 124.679 206.424 124.285C206.424 123.892 206.106 123.573 205.712 123.573C205.319 123.573 205 123.892 205 124.285C205 124.679 205.319 124.998 205.712 124.998Z" fill="#F2D300"/>
<path d="M211.693 124.998C212.086 124.998 212.405 124.679 212.405 124.285C212.405 123.892 212.086 123.573 211.693 123.573C211.299 123.573 210.98 123.892 210.98 124.285C210.98 124.679 211.299 124.998 211.693 124.998Z" fill="#F2D300"/>
<path d="M217.675 124.998C218.068 124.998 218.387 124.679 218.387 124.285C218.387 123.892 218.068 123.573 217.675 123.573C217.282 123.573 216.963 123.892 216.963 124.285C216.963 124.679 217.282 124.998 217.675 124.998Z" fill="#F2D300"/>
<path d="M223.659 124.998C224.053 124.998 224.372 124.679 224.372 124.285C224.372 123.892 224.053 123.573 223.659 123.573C223.266 123.573 222.947 123.892 222.947 124.285C222.947 124.679 223.266 124.998 223.659 124.998Z" fill="#F2D300"/>
<path d="M229.642 124.998C230.035 124.998 230.354 124.679 230.354 124.285C230.354 123.892 230.035 123.573 229.642 123.573C229.249 123.573 228.93 123.892 228.93 124.285C228.93 124.679 229.249 124.998 229.642 124.998Z" fill="#F2D300"/>
<path d="M235.624 124.998C236.018 124.998 236.337 124.679 236.337 124.285C236.337 123.892 236.018 123.573 235.624 123.573C235.231 123.573 234.912 123.892 234.912 124.285C234.912 124.679 235.231 124.998 235.624 124.998Z" fill="#F2D300"/>
<path d="M241.607 124.998C242 124.998 242.319 124.679 242.319 124.285C242.319 123.892 242 123.573 241.607 123.573C241.213 123.573 240.895 123.892 240.895 124.285C240.895 124.679 241.213 124.998 241.607 124.998Z" fill="#F2D300"/>
<path d="M247.589 124.998C247.983 124.998 248.301 124.679 248.301 124.285C248.301 123.892 247.983 123.573 247.589 123.573C247.196 123.573 246.877 123.892 246.877 124.285C246.877 124.679 247.196 124.998 247.589 124.998Z" fill="#F2D300"/>
<path d="M178.646 112.902C179.039 112.902 179.358 112.583 179.358 112.19C179.358 111.796 179.039 111.478 178.646 111.478C178.252 111.478 177.934 111.796 177.934 112.19C177.934 112.583 178.252 112.902 178.646 112.902Z" fill="#F2D300"/>
<path d="M184.63 112.902C185.024 112.902 185.342 112.583 185.342 112.19C185.342 111.796 185.024 111.478 184.63 111.478C184.237 111.478 183.918 111.796 183.918 112.19C183.918 112.583 184.237 112.902 184.63 112.902Z" fill="#F2D300"/>
<path d="M190.613 112.902C191.006 112.902 191.325 112.583 191.325 112.19C191.325 111.796 191.006 111.478 190.613 111.478C190.219 111.478 189.9 111.796 189.9 112.19C189.9 112.583 190.219 112.902 190.613 112.902Z" fill="#F2D300"/>
<path d="M196.593 112.902C196.986 112.902 197.305 112.583 197.305 112.19C197.305 111.796 196.986 111.478 196.593 111.478C196.2 111.478 195.881 111.796 195.881 112.19C195.881 112.583 196.2 112.902 196.593 112.902Z" fill="#F2D300"/>
<path d="M202.577 112.902C202.971 112.902 203.29 112.583 203.29 112.19C203.29 111.796 202.971 111.478 202.577 111.478C202.184 111.478 201.865 111.796 201.865 112.19C201.865 112.583 202.184 112.902 202.577 112.902Z" fill="#F2D300"/>
<path d="M208.56 112.902C208.953 112.902 209.272 112.583 209.272 112.19C209.272 111.796 208.953 111.478 208.56 111.478C208.167 111.478 207.848 111.796 207.848 112.19C207.848 112.583 208.167 112.902 208.56 112.902Z" fill="#F2D300"/>
<path d="M214.542 112.902C214.936 112.902 215.255 112.583 215.255 112.19C215.255 111.796 214.936 111.478 214.542 111.478C214.149 111.478 213.83 111.796 213.83 112.19C213.83 112.583 214.149 112.902 214.542 112.902Z" fill="#F2D300"/>
<path d="M220.527 112.902C220.92 112.902 221.239 112.583 221.239 112.19C221.239 111.796 220.92 111.478 220.527 111.478C220.133 111.478 219.814 111.796 219.814 112.19C219.814 112.583 220.133 112.902 220.527 112.902Z" fill="#F2D300"/>
<path d="M226.507 112.902C226.9 112.902 227.219 112.583 227.219 112.19C227.219 111.796 226.9 111.478 226.507 111.478C226.114 111.478 225.795 111.796 225.795 112.19C225.795 112.583 226.114 112.902 226.507 112.902Z" fill="#F2D300"/>
<path d="M232.49 112.902C232.883 112.902 233.202 112.583 233.202 112.19C233.202 111.796 232.883 111.478 232.49 111.478C232.096 111.478 231.777 111.796 231.777 112.19C231.777 112.583 232.096 112.902 232.49 112.902Z" fill="#F2D300"/>
<path d="M238.474 112.902C238.867 112.902 239.186 112.583 239.186 112.19C239.186 111.796 238.867 111.478 238.474 111.478C238.081 111.478 237.762 111.796 237.762 112.19C237.762 112.583 238.081 112.902 238.474 112.902Z" fill="#F2D300"/>
<path d="M244.456 112.902C244.85 112.902 245.169 112.583 245.169 112.19C245.169 111.796 244.85 111.478 244.456 111.478C244.063 111.478 243.744 111.796 243.744 112.19C243.744 112.583 244.063 112.902 244.456 112.902Z" fill="#F2D300"/>
<path d="M175.798 116.933C176.192 116.933 176.51 116.614 176.51 116.221C176.51 115.828 176.192 115.509 175.798 115.509C175.405 115.509 175.086 115.828 175.086 116.221C175.086 116.614 175.405 116.933 175.798 116.933Z" fill="#F2D300"/>
<path d="M181.779 116.933C182.172 116.933 182.491 116.614 182.491 116.221C182.491 115.828 182.172 115.509 181.779 115.509C181.385 115.509 181.066 115.828 181.066 116.221C181.066 116.614 181.385 116.933 181.779 116.933Z" fill="#F2D300"/>
<path d="M187.763 116.933C188.156 116.933 188.475 116.614 188.475 116.221C188.475 115.828 188.156 115.509 187.763 115.509C187.37 115.509 187.051 115.828 187.051 116.221C187.051 116.614 187.37 116.933 187.763 116.933Z" fill="#F2D300"/>
<path d="M193.745 116.933C194.139 116.933 194.458 116.614 194.458 116.221C194.458 115.828 194.139 115.509 193.745 115.509C193.352 115.509 193.033 115.828 193.033 116.221C193.033 116.614 193.352 116.933 193.745 116.933Z" fill="#F2D300"/>
<path d="M199.728 116.933C200.121 116.933 200.44 116.614 200.44 116.221C200.44 115.828 200.121 115.509 199.728 115.509C199.334 115.509 199.016 115.828 199.016 116.221C199.016 116.614 199.334 116.933 199.728 116.933Z" fill="#F2D300"/>
<path d="M205.712 116.933C206.106 116.933 206.424 116.614 206.424 116.221C206.424 115.828 206.106 115.509 205.712 115.509C205.319 115.509 205 115.828 205 116.221C205 116.614 205.319 116.933 205.712 116.933Z" fill="#F2D300"/>
<path d="M211.693 116.933C212.086 116.933 212.405 116.614 212.405 116.221C212.405 115.828 212.086 115.509 211.693 115.509C211.299 115.509 210.98 115.828 210.98 116.221C210.98 116.614 211.299 116.933 211.693 116.933Z" fill="#F2D300"/>
<path d="M217.675 116.933C218.068 116.933 218.387 116.614 218.387 116.221C218.387 115.828 218.068 115.509 217.675 115.509C217.282 115.509 216.963 115.828 216.963 116.221C216.963 116.614 217.282 116.933 217.675 116.933Z" fill="#F2D300"/>
<path d="M223.659 116.933C224.053 116.933 224.372 116.614 224.372 116.221C224.372 115.828 224.053 115.509 223.659 115.509C223.266 115.509 222.947 115.828 222.947 116.221C222.947 116.614 223.266 116.933 223.659 116.933Z" fill="#F2D300"/>
<path d="M229.642 116.933C230.035 116.933 230.354 116.614 230.354 116.221C230.354 115.828 230.035 115.509 229.642 115.509C229.249 115.509 228.93 115.828 228.93 116.221C228.93 116.614 229.249 116.933 229.642 116.933Z" fill="#F2D300"/>
<path d="M235.624 116.933C236.018 116.933 236.337 116.614 236.337 116.221C236.337 115.828 236.018 115.509 235.624 115.509C235.231 115.509 234.912 115.828 234.912 116.221C234.912 116.614 235.231 116.933 235.624 116.933Z" fill="#F2D300"/>
<path d="M241.607 116.933C242 116.933 242.319 116.614 242.319 116.221C242.319 115.828 242 115.509 241.607 115.509C241.213 115.509 240.895 115.828 240.895 116.221C240.895 116.614 241.213 116.933 241.607 116.933Z" fill="#F2D300"/>
<path d="M247.589 116.933C247.983 116.933 248.301 116.614 248.301 116.221C248.301 115.828 247.983 115.509 247.589 115.509C247.196 115.509 246.877 115.828 246.877 116.221C246.877 116.614 247.196 116.933 247.589 116.933Z" fill="#F2D300"/>
<path d="M196.593 104.837C196.986 104.837 197.305 104.518 197.305 104.124C197.305 103.731 196.986 103.412 196.593 103.412C196.2 103.412 195.881 103.731 195.881 104.124C195.881 104.518 196.2 104.837 196.593 104.837Z" fill="#F2D300"/>
<path d="M202.577 104.837C202.971 104.837 203.29 104.518 203.29 104.124C203.29 103.731 202.971 103.412 202.577 103.412C202.184 103.412 201.865 103.731 201.865 104.124C201.865 104.518 202.184 104.837 202.577 104.837Z" fill="#F2D300"/>
<path d="M208.56 104.837C208.953 104.837 209.272 104.518 209.272 104.124C209.272 103.731 208.953 103.412 208.56 103.412C208.167 103.412 207.848 103.731 207.848 104.124C207.848 104.518 208.167 104.837 208.56 104.837Z" fill="#F2D300"/>
<path d="M214.542 104.837C214.936 104.837 215.255 104.518 215.255 104.124C215.255 103.731 214.936 103.412 214.542 103.412C214.149 103.412 213.83 103.731 213.83 104.124C213.83 104.518 214.149 104.837 214.542 104.837Z" fill="#F2D300"/>
<path d="M220.527 104.837C220.92 104.837 221.239 104.518 221.239 104.124C221.239 103.731 220.92 103.412 220.527 103.412C220.133 103.412 219.814 103.731 219.814 104.124C219.814 104.518 220.133 104.837 220.527 104.837Z" fill="#F2D300"/>
<path d="M226.507 104.837C226.9 104.837 227.219 104.518 227.219 104.124C227.219 103.731 226.9 103.412 226.507 103.412C226.114 103.412 225.795 103.731 225.795 104.124C225.795 104.518 226.114 104.837 226.507 104.837Z" fill="#F2D300"/>
<path d="M232.49 104.837C232.883 104.837 233.202 104.518 233.202 104.124C233.202 103.731 232.883 103.412 232.49 103.412C232.096 103.412 231.777 103.731 231.777 104.124C231.777 104.518 232.096 104.837 232.49 104.837Z" fill="#F2D300"/>
<path d="M238.474 104.837C238.867 104.837 239.186 104.518 239.186 104.124C239.186 103.731 238.867 103.412 238.474 103.412C238.081 103.412 237.762 103.731 237.762 104.124C237.762 104.518 238.081 104.837 238.474 104.837Z" fill="#F2D300"/>
<path d="M181.779 108.868C182.172 108.868 182.491 108.549 182.491 108.156C182.491 107.762 182.172 107.443 181.779 107.443C181.385 107.443 181.066 107.762 181.066 108.156C181.066 108.549 181.385 108.868 181.779 108.868Z" fill="#F2D300"/>
<path d="M187.763 108.868C188.156 108.868 188.475 108.549 188.475 108.156C188.475 107.762 188.156 107.443 187.763 107.443C187.37 107.443 187.051 107.762 187.051 108.156C187.051 108.549 187.37 108.868 187.763 108.868Z" fill="#F2D300"/>
<path d="M193.745 108.868C194.139 108.868 194.458 108.549 194.458 108.156C194.458 107.762 194.139 107.443 193.745 107.443C193.352 107.443 193.033 107.762 193.033 108.156C193.033 108.549 193.352 108.868 193.745 108.868Z" fill="#F2D300"/>
<path d="M199.728 108.868C200.121 108.868 200.44 108.549 200.44 108.156C200.44 107.762 200.121 107.443 199.728 107.443C199.334 107.443 199.016 107.762 199.016 108.156C199.016 108.549 199.334 108.868 199.728 108.868Z" fill="#F2D300"/>
<path d="M205.712 108.868C206.106 108.868 206.424 108.549 206.424 108.156C206.424 107.762 206.106 107.443 205.712 107.443C205.319 107.443 205 107.762 205 108.156C205 108.549 205.319 108.868 205.712 108.868Z" fill="#F2D300"/>
<path d="M211.693 108.868C212.086 108.868 212.405 108.549 212.405 108.156C212.405 107.762 212.086 107.443 211.693 107.443C211.299 107.443 210.98 107.762 210.98 108.156C210.98 108.549 211.299 108.868 211.693 108.868Z" fill="#F2D300"/>
<path d="M217.675 108.868C218.068 108.868 218.387 108.549 218.387 108.156C218.387 107.762 218.068 107.443 217.675 107.443C217.282 107.443 216.963 107.762 216.963 108.156C216.963 108.549 217.282 108.868 217.675 108.868Z" fill="#F2D300"/>
<path d="M223.659 108.868C224.053 108.868 224.372 108.549 224.372 108.156C224.372 107.762 224.053 107.443 223.659 107.443C223.266 107.443 222.947 107.762 222.947 108.156C222.947 108.549 223.266 108.868 223.659 108.868Z" fill="#F2D300"/>
<path d="M229.642 108.868C230.035 108.868 230.354 108.549 230.354 108.156C230.354 107.762 230.035 107.443 229.642 107.443C229.249 107.443 228.93 107.762 228.93 108.156C228.93 108.549 229.249 108.868 229.642 108.868Z" fill="#F2D300"/>
<path d="M235.624 108.868C236.018 108.868 236.337 108.549 236.337 108.156C236.337 107.762 236.018 107.443 235.624 107.443C235.231 107.443 234.912 107.762 234.912 108.156C234.912 108.549 235.231 108.868 235.624 108.868Z" fill="#F2D300"/>
<path d="M241.607 108.868C242 108.868 242.319 108.549 242.319 108.156C242.319 107.762 242 107.443 241.607 107.443C241.213 107.443 240.895 107.762 240.895 108.156C240.895 108.549 241.213 108.868 241.607 108.868Z" fill="#F2D300"/>
<path d="M229.744 159.872C229.744 159.872 226.741 149.023 229.174 134.802" stroke="#003A47" stroke-width="1.0995" stroke-linecap="round" stroke-linejoin="round"/>
<path d="M193.114 159.872V146.374C192.317 146.043 187.744 144.063 185.767 138.881C184.67 135.937 184.643 132.701 185.69 129.739" stroke="#003A47" stroke-width="1.0995" stroke-linecap="round" stroke-linejoin="round"/>
<path d="M253.777 271.027C255.746 222.863 256.441 191.434 235.701 169.672C227.975 170.048 219.873 170.242 211.429 170.196C204.743 170.16 198.286 169.985 192.056 169.672C192.056 169.672 175.769 222.479 170.373 334.178C170.345 334.747 172.274 336.972 175.239 337.528C178.111 338.066 181.134 336.753 182.965 334.178C183.079 334.386 184.811 337.462 188.358 337.716C189.643 337.793 190.923 337.501 192.048 336.874C193.172 336.247 194.093 335.311 194.703 334.178C195.245 335.27 196.082 336.19 197.119 336.833C198.156 337.475 199.352 337.816 200.571 337.816C201.791 337.816 202.987 337.475 204.024 336.833C205.061 336.19 205.898 335.27 206.44 334.178C206.537 334.386 208.204 337.762 211.873 338.183C214.722 338.514 217.571 336.913 218.915 334.178C220.461 335.985 222.629 337.147 224.989 337.434C229.67 337.935 232.764 334.517 233.063 334.178C233.331 334.548 235.413 337.311 239.137 337.528C243.387 337.759 245.909 334.423 246.085 334.178C246.142 334.306 247.544 337.351 250.755 337.716C253.216 338.001 255.666 336.576 256.76 334.178L253.777 271.027Z" fill="#003A47" stroke="#003A47" stroke-width="1.0995" stroke-linejoin="round"/>
<path d="M193.114 159.872C193.114 161.371 193.02 163.006 192.83 164.786C192.654 166.424 192.395 168.052 192.055 169.664C198.279 169.966 204.736 170.14 211.427 170.188C219.871 170.233 227.973 170.04 235.7 169.664C234.277 167.987 233.008 166.186 231.908 164.282C231.089 162.862 230.366 161.388 229.743 159.872C223.677 160.351 217.111 160.63 210.105 160.59C204.103 160.556 198.419 160.291 193.114 159.872Z" fill="#FF7A00" stroke="#003A47" stroke-width="1.0995" stroke-linejoin="round"/>
<path d="M199.028 228.126C199.663 236.251 206.085 242.618 213.7 243.174C222.118 243.789 229.984 237.157 230.742 228.126V219.773C230.741 219.268 230.54 218.784 230.182 218.427C229.825 218.071 229.341 217.87 228.836 217.87H200.917C200.667 217.87 200.419 217.919 200.188 218.015C199.958 218.111 199.748 218.251 199.571 218.428C199.394 218.604 199.254 218.814 199.159 219.045C199.063 219.276 199.014 219.523 199.014 219.773L199.028 228.126Z" fill="#85AFF6" stroke="#003A47" stroke-width="1.0995" stroke-linejoin="round"/>
<path d="M201.233 217.87C200.948 217.869 200.667 217.933 200.41 218.055C200.154 218.178 199.928 218.356 199.749 218.578C199.57 218.799 199.444 219.058 199.379 219.335C199.313 219.612 199.311 219.9 199.372 220.178C200.919 227.175 206.822 232.428 213.699 232.918C221.369 233.488 228.582 228.021 230.374 220.215C230.439 219.935 230.441 219.644 230.379 219.364C230.316 219.084 230.191 218.821 230.013 218.596C229.835 218.37 229.609 218.188 229.351 218.063C229.092 217.937 228.809 217.871 228.522 217.87H201.233Z" fill="#F2D300" stroke="#003A47" stroke-width="1.0995" stroke-miterlimit="10"/>
<path d="M214.883 235.296C215.906 235.296 216.735 234.232 216.735 232.92C216.735 231.608 215.906 230.544 214.883 230.544C213.86 230.544 213.031 231.608 213.031 232.92C213.031 234.232 213.86 235.296 214.883 235.296Z" fill="white" stroke="#003A47" stroke-width="1.0995" stroke-linejoin="round"/>
<path d="M230.875 216.148L247.071 177.577" stroke="#F2D300" stroke-width="1.466" stroke-miterlimit="10"/>
<path d="M202.857 205.192L189.382 167.328C187.146 161.06 179.616 158.308 174.015 161.915C173.77 162.074 173.528 162.242 173.294 162.425C169.637 165.254 168.144 170.302 169.674 174.943L192.054 209.645L195.134 232.624C195.148 232.733 195.185 232.838 195.241 232.932C195.297 233.027 195.371 233.109 195.46 233.174C195.549 233.239 195.65 233.285 195.757 233.31C195.864 233.335 195.974 233.338 196.083 233.319C196.279 233.281 196.454 233.173 196.578 233.017C196.702 232.86 196.766 232.664 196.758 232.465L196.664 224.505L197.519 230.826C197.593 231.366 197.844 231.867 198.231 232.251L202.02 236.014C202.151 236.169 202.329 236.279 202.526 236.327C202.724 236.375 202.931 236.359 203.119 236.282C203.24 236.229 203.348 236.15 203.436 236.052C203.524 235.953 203.59 235.837 203.63 235.712C203.669 235.586 203.682 235.453 203.666 235.322C203.65 235.191 203.607 235.064 203.538 234.952L202.114 232.601L204.176 235.57C204.3 235.753 204.479 235.893 204.686 235.968C204.894 236.044 205.12 236.052 205.333 235.991C205.472 235.95 205.602 235.879 205.712 235.784C205.822 235.689 205.911 235.572 205.972 235.44C206.033 235.308 206.066 235.164 206.068 235.019C206.07 234.873 206.041 234.729 205.983 234.595L205.353 233.145L206.23 233.9C206.344 234.004 206.482 234.076 206.632 234.11C206.782 234.145 206.938 234.14 207.085 234.097C207.307 234.03 207.494 233.877 207.604 233.673C207.714 233.468 207.738 233.228 207.672 233.006L205.652 226.3V220.354C205.652 220.026 205.716 219.7 205.841 219.397C205.967 219.093 206.151 218.818 206.383 218.585C206.615 218.353 206.89 218.169 207.194 218.043C207.497 217.917 207.822 217.853 208.151 217.853H211.284C210.121 212.737 207.122 208.226 202.854 205.175L202.857 205.192Z" fill="#FFC4C8" stroke="#003A47" stroke-width="1.0995" stroke-miterlimit="10"/>
<path d="M202.11 232.617L200.845 230.503C200.734 230.317 200.655 230.113 200.611 229.899L200.133 227.595" stroke="#003A47" stroke-width="1.0995" stroke-linecap="round" stroke-linejoin="round"/>
<path d="M205.356 233.162L203.316 229.544C203.216 229.366 203.143 229.174 203.099 228.974L202.572 226.584" stroke="#003A47" stroke-width="1.0995" stroke-linecap="round" stroke-linejoin="round"/>
<path d="M204.773 193.092C204.773 193.092 197.768 192.751 193.047 191.429C192.594 191.301 192.34 195.417 196.369 195.688C200.303 195.964 204.773 193.092 204.773 193.092Z" fill="#FFC4C8" stroke="#003A47" stroke-width="1.0995" stroke-miterlimit="10"/>
<path d="M231.397 163.492L216.796 194.14L204.774 193.092C203.678 192.995 202.574 193.152 201.549 193.55L190.999 197.639C190.258 197.925 189.603 198.4 189.102 199.017L187.173 201.391C186.897 201.733 186.746 202.159 186.746 202.599V206.302C186.746 206.562 186.849 206.812 187.033 206.996C187.217 207.18 187.466 207.284 187.726 207.285C187.975 207.285 188.214 207.19 188.395 207.02C188.577 206.851 188.687 206.618 188.703 206.37L188.837 204.445L188.552 208.926C188.538 209.14 188.602 209.352 188.732 209.524C188.861 209.695 189.049 209.813 189.259 209.857C189.38 209.882 189.504 209.882 189.625 209.856C189.746 209.831 189.86 209.78 189.96 209.708C190.06 209.636 190.144 209.544 190.207 209.438C190.269 209.332 190.309 209.214 190.324 209.091L190.578 206.963L190.293 210.444C190.271 210.709 190.351 210.971 190.517 211.178C190.683 211.385 190.922 211.52 191.185 211.555C191.432 211.59 191.683 211.534 191.893 211.398C192.102 211.262 192.255 211.055 192.324 210.815L193.179 207.815C193.206 207.717 193.259 207.628 193.331 207.556C193.404 207.485 193.494 207.433 193.592 207.407L202.885 204.918L214.417 208.114C216.693 208.745 219.109 208.639 221.32 207.811C223.532 206.982 225.423 205.475 226.724 203.504L247.088 172.66C247.162 170.797 246.728 168.948 245.833 167.313C244.937 165.678 243.613 164.317 242.004 163.376C240.394 162.435 238.558 161.95 236.694 161.972C234.829 161.995 233.006 162.524 231.419 163.503L231.397 163.492Z" fill="#FFC4C8" stroke="#003A47" stroke-width="1.0995" stroke-miterlimit="10"/>
<path d="M188.689 206.357L188.929 203.528C188.968 203.079 189.171 202.661 189.499 202.351L191.402 200.522" stroke="#003A47" stroke-width="1.0995" stroke-linecap="round" stroke-linejoin="round"/>
<path d="M190.299 209.08L190.663 205.644C190.713 205.17 190.922 204.727 191.256 204.388L192.851 202.764" stroke="#003A47" stroke-width="1.0995" stroke-linecap="round" stroke-linejoin="round"/>
<path d="M191.151 91.6892C190.612 93.1307 188.476 94.0082 184.439 93.2874C183.033 92.995 181.717 92.3708 180.601 91.467C180.242 91.0767 179.145 90.6294 179.066 88.6836C179.033 87.8259 179.198 86.9721 179.547 86.188C176.185 84.2793 174.191 80.6783 174.476 76.9804C174.824 72.3567 178.544 69.8753 178.983 69.5933C178.128 68.4292 177.613 67.0508 177.495 65.6113C177.376 64.1718 177.66 62.7277 178.314 61.4398C179.989 58.2576 183.35 57.5853 183.781 57.5055C183.781 57.1636 183.689 50.8533 188.672 47.6256C192.903 44.8849 198.928 45.5715 202.968 49.5429C204.591 48.2972 206.534 47.5371 208.572 47.3505C210.609 47.1639 212.658 47.5586 214.48 48.4888C219.52 51.1268 220.107 56.7363 220.138 57.1209C220.474 57.1921 224.964 58.2234 226.662 62.5907C227.255 64.1575 227.399 65.8588 227.076 67.5028C226.754 69.1468 225.979 70.6681 224.839 71.8952C225.241 72.4617 225.523 73.104 225.669 73.7831C225.816 74.4622 225.822 75.1639 225.689 75.8457C225.556 76.5274 225.286 77.175 224.895 77.7491C224.503 78.3232 224 78.8119 223.414 79.1855C224.069 80.517 224.336 82.0057 224.185 83.4817C224.034 84.9577 223.47 86.3615 222.56 87.5327C219.836 90.9827 215.46 90.4499 215.266 90.4215L191.151 91.6892Z" fill="#FF7A00" stroke="#003A47" stroke-width="1.0995" stroke-linejoin="round"/>
<path d="M186.179 68.5309C185.45 68.4165 184.764 68.1092 184.193 67.6409C183.622 67.1726 183.187 66.5602 182.932 65.8672" stroke="#003A47" stroke-width="1.0995" stroke-linecap="round" stroke-linejoin="round"/>
<path d="M203.775 61.4678C204.471 59.6303 205.869 56.3398 205.869 56.3398" stroke="#003A47" stroke-width="1.0995" stroke-linecap="round" stroke-linejoin="round"/>
<path d="M231.397 100.497C230.647 101.523 222.061 112.845 207.722 112.337C197.204 111.967 190.469 105.477 188.92 103.896L196.389 99.9562C196.725 99.7796 197.003 99.511 197.191 99.1821C197.379 98.8531 197.47 98.4773 197.452 98.0987L197.227 93.2271C197.227 93.2271 194.045 94.6516 192.287 92.9422C184.091 84.8999 186.185 68.5444 186.185 68.5444C187.312 68.8374 188.496 68.8374 189.623 68.5444C192.609 67.7439 193.934 65.1001 194.15 64.6529C195.629 65.4093 197.323 65.6327 198.948 65.2853C202.227 64.5446 203.654 61.6815 203.834 61.2969C203.734 61.7356 203.124 64.6301 205.01 67.1798C205.792 68.2071 206.832 69.0082 208.025 69.5013C209.218 69.9944 210.52 70.1616 211.799 69.986C210.893 70.7409 210.218 71.7351 209.849 72.8554C209.481 73.9756 209.435 75.1767 209.717 76.3219C210.48 79.242 213.169 80.373 213.466 80.4898L214.639 89.6062C214.9 91.6314 215.763 93.5315 217.117 95.06C218.471 96.5886 220.253 97.675 222.232 98.1785L231.397 100.497Z" fill="#FFC4C8" stroke="#003A47" stroke-width="1.0995" stroke-miterlimit="10"/>
<path d="M197.221 93.2279C203.104 91.1596 205.585 87.3193 205.585 87.3193C203.53 91.0255 200.741 94.2738 197.389 96.8659C197.336 95.6523 197.28 94.4397 197.221 93.2279Z" fill="#003A47" stroke="#003A47" stroke-width="1.0995" stroke-linejoin="round"/>
<path d="M193.277 70.9443C193.277 70.9443 193.5 75.2575 190.625 77.7275L192.836 79.2488" stroke="#003A47" stroke-width="1.0995" stroke-linecap="round" stroke-linejoin="round"/>
<path d="M193.051 82.4308C193.051 82.4308 195.179 82.6473 196.367 81.1943" stroke="#003A47" stroke-width="1.0995" stroke-linecap="round" stroke-linejoin="round"/>
<path d="M189.022 73.9125C189.358 73.9125 189.631 73.5298 189.631 73.0578C189.631 72.5858 189.358 72.2031 189.022 72.2031C188.685 72.2031 188.412 72.5858 188.412 73.0578C188.412 73.5298 188.685 73.9125 189.022 73.9125Z" fill="#003A47"/>
<path d="M198.707 73.9125C199.044 73.9125 199.317 73.5298 199.317 73.0578C199.317 72.5858 199.044 72.2031 198.707 72.2031C198.371 72.2031 198.098 72.5858 198.098 73.0578C198.098 73.5298 198.371 73.9125 198.707 73.9125Z" fill="#003A47"/>
<path d="M182.059 96.6482C189.899 97.5029 192.141 105.067 190.722 108.662C189.62 111.454 186.734 113.368 183.415 113.474C184.99 116.306 184.295 119.787 181.956 121.61C179.999 123.137 177.181 123.28 174.896 121.943C174.543 122.292 174.124 122.566 173.663 122.75C173.202 122.935 172.709 123.025 172.212 123.016C171.716 123.007 171.227 122.899 170.773 122.698C170.319 122.497 169.91 122.208 169.569 121.847C167.732 124.599 164.193 124.821 162.589 123.271C161.216 121.943 161.065 119.129 162.814 117.043C160.838 116.461 159.173 115.118 158.187 113.308C157.201 111.499 156.975 109.372 157.557 107.396C158.139 105.419 159.482 103.755 161.292 102.769C163.101 101.783 165.228 101.556 167.205 102.138C167.119 101.887 166.168 98.2664 168.321 95.6711C170.475 93.0757 175.227 92.2866 179.181 95.221L182.059 96.6482Z" fill="#FF7A00" stroke="#003A47" stroke-width="1.0995" stroke-linejoin="round"/>
<path d="M183.768 93.259L180.764 91.7381C179.827 91.2641 178.684 91.6389 178.21 92.5752C177.736 93.5115 178.111 94.6548 179.047 95.1288L182.052 96.6497C182.988 97.1237 184.131 96.7489 184.605 95.8126C185.079 94.8763 184.704 93.733 183.768 93.259Z" fill="#F2D300" stroke="#003A47" stroke-width="1.0995" stroke-miterlimit="10"/>
<path d="M213.459 80.4814C214.685 80.8778 216.005 80.8778 217.231 80.4814" stroke="#003A47" stroke-width="1.0995" stroke-linecap="round" stroke-linejoin="round"/>
<path d="M167.203 102.142C167.4 102.782 167.791 103.346 168.322 103.754C168.854 104.163 169.499 104.396 170.169 104.421" stroke="#003A47" stroke-width="1.0995" stroke-linecap="round" stroke-linejoin="round"/>
<path d="M168.677 127.888L165.463 125.338C165.316 125.22 165.14 125.144 164.954 125.117C164.768 125.09 164.578 125.114 164.404 125.185C164.229 125.256 164.077 125.372 163.963 125.522C163.849 125.672 163.777 125.849 163.754 126.036C163.574 127.683 163.985 130.309 167.312 132.956L168.677 127.888Z" fill="#BE5C4B" stroke="#003A47" stroke-width="1.0995" stroke-miterlimit="10"/>
<path d="M164.791 145.574C164.791 145.574 167.423 149.466 165.816 150.634C164.21 151.802 157.714 144.061 162.158 142.024C162.158 142.024 159.856 137.466 164.281 137.216C164.281 137.216 161.164 132.139 165.275 132.145C168.679 132.145 172.488 139.988 171.349 141.17C170.007 142.563 167.36 140.267 167.36 140.267C167.36 140.267 171.523 146.249 169.771 147.785C168.335 149.038 164.791 145.574 164.791 145.574Z" fill="#BE5C4B" stroke="#003A47" stroke-width="1.0995" stroke-miterlimit="10"/>
<path d="M162.166 142.023L164.798 145.573" stroke="#003A47" stroke-width="1.0995" stroke-linecap="round" stroke-linejoin="round"/>
<path d="M164.289 137.215L167.357 140.266" stroke="#003A47" stroke-width="1.0995" stroke-linecap="round" stroke-linejoin="round"/>
<path d="M47.1703 409.552C47.1713 409.659 47.1665 409.767 47.156 409.874H17.5732C17.3545 409.33 16.9782 408.864 16.4926 408.536C16.007 408.208 15.4343 408.033 14.8483 408.033C14.2623 408.033 13.6896 408.208 13.204 408.536C12.7184 408.864 12.3421 409.33 12.1233 409.874H0.978516L1.12665 407.777L1.47707 402.797C5.99277 402.692 10.5 402.353 14.9808 401.783C19.6774 401.185 24.3376 400.329 28.9403 399.219C28.9403 399.219 33.9315 403.959 40.8572 404.347C44.7715 404.566 46.27 406.304 46.8398 407.765C47.0587 408.335 47.1707 408.941 47.1703 409.552Z" fill="#638000" stroke="#003A47" stroke-width="1.0995" stroke-miterlimit="10"/>
<path d="M47.17 407.773V409.87H17.573C17.3543 409.327 16.9779 408.861 16.4923 408.533C16.0067 408.205 15.4341 408.029 14.848 408.029C14.262 408.029 13.6894 408.205 13.2038 408.533C12.7182 408.861 12.3418 409.327 12.1231 409.87H0.693359L0.841498 407.773H47.17Z" fill="#003A47" stroke="#003A47" stroke-width="1.0995" stroke-linejoin="round"/>
<path d="M28.4922 403.033L31.6487 401.244" stroke="#003A47" stroke-width="1.0995" stroke-linecap="round" stroke-linejoin="round"/>
<path d="M30.3926 404.548L33.8198 402.448" stroke="#003A47" stroke-width="1.0995" stroke-linecap="round" stroke-linejoin="round"/>
<path d="M100.659 409.552C100.665 409.659 100.665 409.766 100.659 409.874H71.0621C70.8434 409.33 70.467 408.864 69.9814 408.536C69.4958 408.208 68.9232 408.033 68.3371 408.033C67.7511 408.033 67.1785 408.208 66.6929 408.536C66.2073 408.864 65.8309 409.33 65.6122 409.874H54.4531L54.6013 407.777L54.9488 402.797C59.4645 402.692 63.9718 402.353 68.4525 401.783C73.1493 401.185 77.8095 400.329 82.412 399.219C82.412 399.219 87.4061 403.959 94.3289 404.347C98.2433 404.566 99.7418 406.304 100.312 407.765C100.536 408.334 100.654 408.94 100.659 409.552Z" fill="#638000" stroke="#003A47" stroke-width="1.0995" stroke-miterlimit="10"/>
<path d="M100.659 407.773V409.87H71.0618C70.8431 409.327 70.4667 408.861 69.9811 408.533C69.4955 408.205 68.9229 408.029 68.3369 408.029C67.7508 408.029 67.1782 408.205 66.6926 408.533C66.207 408.861 65.8306 409.327 65.6119 409.87H54.168L54.3133 407.773H100.659Z" fill="#003A47" stroke="#003A47" stroke-width="1.0995" stroke-linejoin="round"/>
<path d="M81.5859 403.032L84.8679 401.072" stroke="#003A47" stroke-width="1.0995" stroke-linecap="round" stroke-linejoin="round"/>
<path d="M83.709 404.229L86.6775 402.267" stroke="#003A47" stroke-width="1.0995" stroke-linecap="round" stroke-linejoin="round"/>
<path d="M80.5165 394.404C76.2718 395.68 71.9655 396.741 67.6139 397.583C62.9047 398.495 55.5432 399.597 51.532 399.962L42.3415 313.476L32.2023 395.367C27.8777 396.666 19.4308 397.871 13.5137 398.58C9.51534 399.061 5.48962 399.276 1.46289 399.224L5.90999 212.056C6.08335 204.793 7.47491 197.611 10.0266 190.809L15.5392 176.111H62.4432L78.7473 273.543C79.1182 275.756 79.3164 277.994 79.3399 280.238L80.5165 394.404Z" fill="#94424F" stroke="#003A47" stroke-width="1.0995" stroke-linejoin="round"/>
<path d="M42.3418 313.475C44.5383 297.203 52.1647 206.357 52.1647 206.357" stroke="#003A47" stroke-width="1.0995" stroke-miterlimit="10"/>
<path d="M24.0664 396.682L39.2282 202.765" stroke="#003A47" stroke-width="1.0995" stroke-linecap="round" stroke-linejoin="round"/>
<path d="M60.1641 202.765L72.0126 273.485C72.4178 275.907 72.6387 278.357 72.6735 280.813L74.3002 395.543" stroke="#003A47" stroke-width="1.0995" stroke-linecap="round" stroke-linejoin="round"/>
<path d="M18.0957 195.967C21.8888 194.998 25.4228 193.208 28.4478 190.723C31.4729 188.238 33.9152 185.119 35.6021 181.586" stroke="#003A47" stroke-width="1.0995" stroke-linecap="round" stroke-linejoin="round"/>
<path d="M13.4902 181.586H42.1215" stroke="#003A47" stroke-width="1.0995" stroke-linecap="round" stroke-linejoin="round"/>
<path d="M50.1836 183.216C54.627 182.358 58.9048 180.795 62.8554 178.587C63.1232 180.177 63.3891 181.765 63.6531 183.353L50.1836 183.216Z" fill="#003A47" stroke="#003A47" stroke-width="1.0995" stroke-linejoin="round"/>
<path d="M31.9862 398.895C26.7443 400.018 21.0608 401.015 14.967 401.784C9.58548 402.462 5.33495 402.886 0.548828 403.126V399.226C5.02727 399.001 8.87041 398.636 13.7648 398.086C20.3172 397.36 27.0377 396.399 32.7611 395.3L31.9862 398.895Z" fill="#94424F" stroke="#003A47" stroke-width="1.0995" stroke-linejoin="round"/>
<path d="M50.9609 399.107L51.5307 403.033C55.8525 402.956 60.5588 402.685 65.5814 402.118C71.2463 401.477 76.8697 400.512 82.424 399.227C81.9777 397.62 81.5313 396.013 81.085 394.406C76.2875 395.589 71.0171 396.685 65.3136 397.54C60.234 398.304 55.428 398.802 50.9609 399.107Z" fill="#94424F" stroke="#003A47" stroke-width="1.0995" stroke-linejoin="round"/>
<path d="M82.6016 105.465L87.1313 171.471L131.89 167.482C126.503 147.866 124.469 127.48 125.873 107.186L82.6016 105.465Z" fill="white" stroke="#003A47" stroke-width="1.0995" stroke-linejoin="round"/>
<path d="M119.353 119.4H90.8809V122.534H119.353V119.4Z" fill="#CEDFFB"/>
<path d="M119.638 127.093H91.166V130.227H119.638V127.093Z" fill="#CEDFFB"/>
<path d="M119.923 134.785H91.4512V137.919H119.923V134.785Z" fill="#CEDFFB"/>
<path d="M92.9422 158.28L86.5664 163.203L86.8399 167.189L92.9422 158.28Z" fill="#003A47" stroke="#003A47" stroke-width="1.0995" stroke-linejoin="round"/>
<path d="M112.842 152.85L116.075 156.28L119.89 149.072" stroke="#638000" stroke-width="2.93201" stroke-miterlimit="10"/>
<path d="M91.166 105.806L95.1829 98.0997C95.302 97.8709 95.4816 97.6792 95.7021 97.5456C95.9227 97.412 96.1757 97.3415 96.4336 97.3419C96.6213 97.3396 96.8076 97.3749 96.9814 97.4457C97.1553 97.5164 97.3132 97.6213 97.4459 97.754C97.5787 97.8867 97.6835 98.0447 97.7543 98.2185C97.8251 98.3924 97.8603 98.5786 97.858 98.7663L97.8096 106.077L91.166 105.806Z" fill="#FFC4C8" stroke="#003A47" stroke-width="1.0995" stroke-miterlimit="10"/>
<path d="M98.3869 103.932L96.3328 112.151C96.1924 112.685 96.2558 113.252 96.5107 113.742C96.7656 114.232 97.1937 114.609 97.7117 114.8C98.2426 114.983 98.8237 114.953 99.3328 114.716C99.8418 114.479 100.239 114.054 100.441 113.53L101.543 110.661L100.734 114.467C100.616 114.988 100.697 115.535 100.96 116C101.223 116.465 101.651 116.816 102.159 116.982C102.679 117.144 103.241 117.098 103.728 116.853C104.214 116.608 104.586 116.183 104.766 115.669L105.637 113.156L105.415 114.381C105.335 114.797 105.408 115.228 105.62 115.594C105.832 115.96 106.169 116.238 106.569 116.376C106.956 116.5 107.375 116.483 107.751 116.326C108.126 116.169 108.433 115.884 108.617 115.521L112.654 107.433C112.836 107.077 112.908 106.676 112.861 106.279C112.815 105.883 112.651 105.509 112.392 105.205C112.013 104.769 111.491 104.481 110.919 104.393C110.394 104.321 109.859 104.417 109.393 104.668C108.926 104.92 108.552 105.314 108.324 105.792C108.265 105.227 108.026 104.695 107.641 104.277C107.257 103.858 106.748 103.575 106.189 103.468C105.631 103.362 105.053 103.438 104.542 103.686C104.03 103.933 103.612 104.339 103.35 104.843C103.271 104.291 103.02 103.777 102.633 103.376C102.246 102.974 101.742 102.704 101.193 102.604C100.644 102.505 100.077 102.58 99.5736 102.821C99.07 103.061 98.6548 103.454 98.3869 103.943V103.932Z" fill="#FFC4C8" stroke="#003A47" stroke-width="1.0995" stroke-miterlimit="10"/>
<path d="M101.545 110.661L103.351 104.832" stroke="#003A47" stroke-width="1.0995" stroke-linejoin="round"/>
<path d="M105.623 113.157L108.324 105.781" stroke="#003A47" stroke-width="1.0995" stroke-linejoin="round"/>
<path d="M31.1787 75.4881L27.1504 80.354L45.6909 95.2736L49.9813 87.9377L32.0847 75.3656C31.9456 75.2694 31.7755 75.2286 31.6079 75.2512C31.4403 75.2739 31.2872 75.3584 31.1787 75.4881Z" fill="white" stroke="#003A47" stroke-width="1.0995" stroke-linejoin="round"/>
<path d="M87.1222 162.784C87.1222 162.784 70.3422 175.544 58.753 180.555C52.3687 183.316 45.7393 185.199 40.6826 180.43L36.979 176.943H14.0826C11.2764 176.943 8.84061 174.781 8.7466 171.977C7.70961 142.093 -0.102018 128.871 4.0431 108.496C7.56432 91.166 27.119 80.3545 27.119 80.3545L45.6595 95.2741L49.9785 87.9382L60.8184 95.0804C66.2085 99.3024 68.7953 102.96 70.3309 112.174L74.2936 129.711L83.3417 116.401L85.7034 150.762L82.111 155.448L87.1222 162.784Z" fill="white" stroke="#003A47" stroke-width="1.0995" stroke-linejoin="round"/>
<path d="M75.2095 145.343C70.3436 145.819 60.854 147.477 56.1904 149.42C49.0852 134.976 43.5841 113.937 39.9517 104.163C37.2738 96.9323 32.1914 92.8043 25.0293 93.0208" stroke="#003A47" stroke-width="1.0995" stroke-linecap="round" stroke-linejoin="round"/>
<path d="M36.9725 176.94C29.3888 166.522 16.7227 145.317 16.7227 145.317" stroke="#003A47" stroke-width="1.0995" stroke-linecap="round" stroke-linejoin="round"/>
<path d="M74.3008 129.7L71.1328 134.976" stroke="#003A47" stroke-width="1.0995" stroke-linecap="round" stroke-linejoin="round"/>
<path d="M70.3438 131.196L72.7169 132.339" stroke="#003A47" stroke-width="1.0995" stroke-linecap="round" stroke-linejoin="round"/>
<path d="M80.8934 142.148C81.7481 144.288 82.9247 146.185 84.5969 148.781C86.8887 152.348 89.7046 155.55 92.9499 158.279L87.1296 162.783C84.0901 160.57 81.495 157.804 79.4804 154.629C77.6001 151.764 76.1597 148.634 75.207 145.342L80.8934 142.148Z" fill="white" stroke="#003A47" stroke-width="1.0995" stroke-linejoin="round"/>
<path d="M49.9863 87.9385L53.9235 95.6219L54.7525 90.4113L51.123 84.9102L49.9863 87.9385Z" fill="white" stroke="#003A47" stroke-width="1.0995" stroke-linejoin="round"/>
<path d="M56.1904 149.42C52.9227 150.326 51.0254 151.049 51.0254 151.049" stroke="#003A47" stroke-width="1.0995" stroke-linecap="round" stroke-linejoin="round"/>
<path d="M60.8066 111.145C64.0999 121.215 61.7183 140.363 62.1257 147.61" stroke="#003A47" stroke-width="1.0995" stroke-linecap="round" stroke-linejoin="round"/>
<path d="M45.6816 95.2743L49.9806 87.9385L53.9178 95.6305L50.5504 97.8668L60.1711 147.973L56.1826 149.42C53.6248 144.708 51.5854 139.732 50.1002 134.58C49.8154 122.302 49.6216 110.22 49.3282 97.938L45.6816 95.2743Z" fill="#85AFF6" stroke="#003A47" stroke-width="1.0995" stroke-linejoin="round"/>
<path d="M83.3483 116.39L84.8012 137.517L80.8926 142.149L83.3483 116.39Z" fill="#003A47" stroke="#003A47" stroke-width="1.0995" stroke-linejoin="round"/>
<path d="M107.638 124.427C105.78 128.221 102.94 133.66 102.94 133.66C103.316 133.365 103.775 133.195 104.253 133.175C104.73 133.155 105.202 133.286 105.601 133.549C106.055 133.878 106.374 134.36 106.5 134.906C106.625 135.453 106.549 136.026 106.285 136.52C106.686 136.309 107.143 136.228 107.593 136.288C108.042 136.348 108.462 136.547 108.793 136.857C109.124 137.167 109.351 137.573 109.441 138.017C109.531 138.462 109.48 138.923 109.296 139.338C109.666 139.132 110.09 139.046 110.511 139.093C110.932 139.14 111.327 139.316 111.643 139.599C111.958 139.881 112.178 140.254 112.271 140.667C112.364 141.08 112.326 141.512 112.162 141.902C105.632 152.984 97.4474 155.77 92.9405 158.269C87.7993 153.832 83.6877 148.327 80.8926 142.138C80.8926 142.138 90.5018 130.201 92.9405 130.05C94.7068 129.942 96.6668 131.76 96.6668 131.76C96.6668 131.76 101.963 125.863 104.991 122.601C105.234 122.34 105.556 122.167 105.907 122.107C106.258 122.047 106.619 122.105 106.934 122.27C107.31 122.467 107.594 122.802 107.725 123.205C107.857 123.608 107.825 124.047 107.638 124.427Z" fill="#FFC4C8" stroke="#003A47" stroke-width="1.0995" stroke-miterlimit="10"/>
<path d="M70.1769 71.7415C70.4005 71.669 70.5906 71.5188 70.713 71.3181C70.8353 71.1174 70.8816 70.8795 70.8436 70.6476C70.1171 66.3514 69.818 63.5538 69.0829 56.6396C68.8123 54.0756 68.1571 49.2069 63.6074 47.5488C63.4665 50.8862 62.1367 54.0631 59.8583 56.5057C56.4225 60.1551 52.5822 58.2606 51.531 58.3603C50.9612 58.9614 48.9271 62.9185 46.3204 63.4313C44.77 63.7378 43.1668 63.6397 41.6653 63.1465C39.466 61.7847 36.6712 62.4513 35.469 64.3601C34.4804 65.9327 34.697 68.1377 36.0844 69.6732L32.207 75.4508L49.9812 87.9374L51.1208 84.9091L57.3256 87.2138C58.1624 87.5244 59.0849 87.5124 59.9133 87.1801C60.7417 86.8478 61.4168 86.219 61.8069 85.4161L64.5333 79.7953C61.9693 78.1743 61.6132 76.3054 61.8041 74.9522C61.9408 73.995 62.6188 73.7329 63.3368 74.3824C65.1458 76.0148 66.7241 75.1716 66.7241 75.1716C66.6674 74.693 66.7111 74.2079 66.8523 73.7471C66.9578 73.4127 67.1423 73.1087 67.3903 72.8607C67.6382 72.6128 67.9423 72.4282 68.2767 72.3227L70.1769 71.7415Z" fill="#FFC4C8" stroke="#003A47" stroke-width="1.0995" stroke-miterlimit="10"/>
<path d="M60.6895 43.0341C64.9628 41.4216 69.5837 43.3788 71.1762 47.0225C72.4468 49.9198 71.6434 53.5436 69.1164 55.968C69.045 54.1996 68.4947 52.4837 67.5243 51.0036C66.5539 49.5234 65.1999 48.3345 63.6067 47.5638C63.1925 45.7637 62.1602 44.1658 60.6895 43.0483V43.0341Z" fill="#F2D300" stroke="#003A47" stroke-width="1.0995" stroke-miterlimit="10"/>
<path d="M36.084 69.6826C36.084 69.6826 37.2235 71.3464 40.326 71.3919" stroke="#003A47" stroke-width="1.0995" stroke-linecap="round" stroke-linejoin="round"/>
<path d="M41.1542 67.8032L38.7754 65.5811" stroke="#003A47" stroke-width="1.0995" stroke-linecap="round" stroke-linejoin="round"/>
<path d="M51.1217 84.9095L45.5664 82.4424L49.985 87.9379L51.1217 84.9095Z" fill="#003A47" stroke="#003A47" stroke-width="1.0995" stroke-linejoin="round"/>
<path d="M64.2236 64.623C64.2236 65.1529 63.9387 65.5803 63.6026 65.5803C63.2664 65.5803 62.9844 65.1529 62.9844 64.623H64.2236Z" fill="#003A47"/>
<path d="M61.8443 61.4429L64.4083 61.064C64.5255 61.047 64.6381 61.0069 64.7398 60.9463C64.8415 60.8856 64.9302 60.8055 65.0008 60.7105C65.0715 60.6155 65.1227 60.5074 65.1515 60.3926C65.1804 60.2778 65.1863 60.1584 65.169 60.0413L65.112 59.6652C65.0925 59.5372 65.0458 59.4148 64.9751 59.3064C64.9043 59.1979 64.8111 59.1059 64.7018 59.0365C64.5924 58.9671 64.4695 58.922 64.3412 58.9042C64.2129 58.8863 64.0823 58.8962 63.9582 58.9331L61.4654 59.6852C61.2852 59.7353 61.1249 59.84 61.0066 59.9848C60.8883 60.1297 60.8176 60.3077 60.8045 60.4943C60.7961 60.6291 60.818 60.764 60.8687 60.8892C60.9193 61.0144 60.9974 61.1267 61.0972 61.2177C61.1969 61.3087 61.3158 61.3762 61.4452 61.4152C61.5745 61.4542 61.7109 61.4636 61.8443 61.4429Z" fill="#F2D300" stroke="#003A47" stroke-width="1.0995" stroke-miterlimit="10"/>
<path d="M67.8488 72.5348C66.9514 72.8197 65.9799 72.0362 66.373 71.0762" stroke="#003A47" stroke-width="1.0995" stroke-linecap="round" stroke-linejoin="round"/>
<path d="M41.663 63.1557C39.4637 61.7939 36.6689 62.4606 35.4667 64.3693C34.4781 65.9419 34.6946 68.1469 36.0821 69.6825L34.9283 71.3918C29.598 62.0902 24.7919 54.5834 28.7975 46.7091C31.954 40.4957 37.2045 36.909 44.6657 37.7864C49.4718 38.51 53.7337 39.7806 59.5312 42.1595C62.9641 43.5668 63.3202 45.4528 63.6051 47.5438C63.4733 50.6604 62.3076 53.6444 60.2918 56.025C56.802 60.0932 52.5571 58.2585 51.5287 58.3639L48.2468 64.6029C48.1084 64.8675 47.9163 65.1003 47.6829 65.2865C47.4495 65.4727 47.1798 65.6082 46.8911 65.6843C46.6024 65.7604 46.301 65.7755 46.0061 65.7287C45.7113 65.6818 45.4294 65.5739 45.1785 65.412L41.663 63.1557Z" fill="#F2D300" stroke="#003A47" stroke-width="1.0995" stroke-miterlimit="10"/>
<path d="M51.5299 58.3688C47.4845 57.8788 41.1543 55.6709 41.1543 55.6709" stroke="#003A47" stroke-width="1.0995" stroke-linecap="round" stroke-linejoin="round"/>
<path d="M46.3438 57.2674L49.9903 51.0996" stroke="#003A47" stroke-width="1.0995" stroke-linecap="round" stroke-linejoin="round"/>
<path d="M48.8711 57.8932L50.8311 54.9189" stroke="#003A47" stroke-width="1.0995" stroke-linecap="round" stroke-linejoin="round"/>
<path d="M79.1816 71.1178L108.596 60.2237C105.873 69.3401 111.534 78.8782 120.405 80.8895C128.923 82.8239 137.834 77.2458 139.797 68.3174C148.663 72.4995 158.805 69.6107 163.303 62.4885C166.722 57.1127 166.545 49.8765 163.019 43.9167C170.078 39.7003 172.42 30.8774 168.913 24.4674C165.978 19.1115 159.375 16.2056 152.825 17.687C154.21 9.27429 148.119 1.44841 139.968 0.619386C132.094 -0.169754 124.749 5.84424 124.014 14.0433C119.311 8.10625 110.559 7.39973 105.155 12.1887C100.027 16.7469 99.403 24.9374 104.064 30.4215C97.9444 31.1594 92.9018 35.5068 91.3891 41.3071C90.7343 43.91 90.7978 46.6418 91.573 49.2115C92.3481 51.7811 93.8057 54.0924 95.7906 55.8991L79.1816 71.1178Z" fill="#85AFF6" stroke="#003A47" stroke-width="1.0995" stroke-linejoin="round"/>
<path d="M136.448 54.3179H112.643V33.0909L124.545 24.2793L136.448 33.0909V54.3179Z" fill="white" stroke="#003A47" stroke-width="1.0995" stroke-linejoin="round"/>
<path d="M136.447 54.3175H153.791V43.0189L136.447 37.0049V54.3175Z" fill="white" stroke="#003A47" stroke-width="1.0995" stroke-linejoin="round"/>
<path d="M123.846 38.376H120.553V41.6693H123.846V38.376Z" fill="#FF7A00"/>
<path d="M128.741 38.376H125.447V41.6693H128.741V38.376Z" fill="#FF7A00"/>
<path d="M123.846 43.2217H120.553V46.515H123.846V43.2217Z" fill="#FF7A00"/>
<path d="M128.741 43.2217H125.447V46.515H128.741V43.2217Z" fill="#FF7A00"/>
<path d="M124.544 34.1819C125.606 34.1819 126.467 33.321 126.467 32.2589C126.467 31.1969 125.606 30.3359 124.544 30.3359C123.482 30.3359 122.621 31.1969 122.621 32.2589C122.621 33.321 123.482 34.1819 124.544 34.1819Z" fill="#F2D300"/>
<path d="M150.25 45.4854H139.764V53.7243H150.25V45.4854Z" fill="#FF7A00"/>
<path d="M111.287 33.0458L124.546 23.2314L137.804 33.0458" stroke="#003A47" stroke-width="3.29851" stroke-linecap="round" stroke-linejoin="round"/>
<path d="M137.807 37.0049L155.148 43.0189" stroke="#003A47" stroke-width="3.29851" stroke-linecap="round" stroke-linejoin="round"/>
<path d="M249.803 27.1572L252.765 24.5391L252.7 28.4933L256.449 29.7525L252.991 31.6727L253.777 35.5471L250.387 33.513L247.424 36.1312L247.489 32.1769L243.74 30.9206L247.196 29.0004L246.41 25.1231L249.803 27.1572Z" fill="#F2D300" stroke="#003A47" stroke-width="1.0995" stroke-miterlimit="10"/>
<path d="M107.876 258.189L110.839 255.571L110.773 259.526L114.522 260.782L111.064 262.702L111.85 266.577L108.457 264.542L105.494 267.161L105.56 263.209L101.811 261.95L105.269 260.03L104.483 256.155L107.876 258.189Z" fill="#85AFF6" stroke="#003A47" stroke-width="1.0995" stroke-linejoin="round"/>
<path d="M146.474 191.033L148.069 189.865C153.391 185.971 160.804 190.253 160.092 196.805L159.878 198.771L161.687 199.569C167.718 202.229 167.718 210.79 161.687 213.448L159.878 214.246L160.092 216.212C160.804 222.764 153.391 227.038 148.069 223.152L146.474 221.984L144.879 223.152C139.56 227.046 132.147 222.767 132.859 216.212L133.073 214.246L131.264 213.448C125.23 210.79 125.23 202.229 131.264 199.569L133.073 198.771L132.859 196.805C132.147 190.253 139.56 185.979 144.879 189.865L146.474 191.033Z" fill="#F2D300" stroke="#003A47" stroke-width="1.0995" stroke-miterlimit="10"/>
<path d="M146.473 203.55C148.265 203.55 149.718 202.098 149.718 200.305C149.718 198.513 148.265 197.061 146.473 197.061C144.681 197.061 143.229 198.513 143.229 200.305C143.229 202.098 144.681 203.55 146.473 203.55Z" stroke="white" stroke-width="1.83251" stroke-linejoin="round"/>
<path d="M146.475 203.549V215.959" stroke="white" stroke-width="1.83251" stroke-linecap="round" stroke-linejoin="round"/>
<path d="M143.229 211.161H146.473" stroke="white" stroke-width="1.466" stroke-linejoin="round"/>
<path d="M143.229 214.214H146.473" stroke="white" stroke-width="1.466" stroke-linejoin="round"/>
<path d="M88.2485 21.0197C88.2485 21.6579 87.2286 22.202 85.7956 22.4185C85.579 23.843 85.0378 24.8657 84.3996 24.8657C83.7615 24.8657 83.2202 23.8515 83.0037 22.4185C81.5792 22.202 80.5508 21.6579 80.5508 21.0197C80.5508 20.3816 81.5707 19.8403 83.0037 19.6238C83.2202 18.1993 83.7643 17.1709 84.3996 17.1709C85.0349 17.1709 85.579 18.1908 85.7956 19.6238C87.2286 19.8403 88.2485 20.3816 88.2485 21.0197Z" fill="white" stroke="#003A47" stroke-width="1.0995" stroke-miterlimit="10"/>
</svg>
